<?xml version="1.0" encoding="utf-8"?>
<!-- Generator: Adobe Illustrator 22.1.0, SVG Export Plug-In . SVG Version: 6.00 Build 0)  -->
<svg version="1.1" id="Layer_1" xmlns="http://www.w3.org/2000/svg" xmlns:xlink="http://www.w3.org/1999/xlink" x="0px" y="0px"
	 width="103.511px" height="24.489px" viewBox="0 0 103.511 24.489" enable-background="new 0 0 103.511 24.489"
	 xml:space="preserve">
<g>
	<g>
		<g>
			<g>
				<g>
					<g enable-background="new    ">
						<g>
							<g>
								<path fill="#00609D" d="M31.764,23.947c0.144,0,0.261-0.085,0.261-0.189V0.189C32.026,0.085,31.908,0,31.764,0
									c-0.144,0-0.262,0.085-0.262,0.189v23.569C31.503,23.862,31.62,23.947,31.764,23.947"/>
							</g>
						</g>
					</g>
				</g>
			</g>
			<g>
				<path fill="#00609D" stroke="#00609D" stroke-width="0.5728" stroke-miterlimit="10" d="M47.141,16.805
					c-0.276,0.508-0.622,0.934-1.038,1.281c-0.417,0.347-0.888,0.613-1.413,0.8c-0.526,0.186-1.097,0.279-1.713,0.279
					c-0.679,0-1.317-0.122-1.914-0.366c-0.596-0.244-1.125-0.597-1.587-1.059c-0.321-0.321-0.568-0.655-0.74-1.002
					c-0.173-0.347-0.302-0.735-0.385-1.165c-0.084-0.431-0.132-0.918-0.144-1.464c-0.013-0.546-0.019-1.185-0.019-1.917
					c0-0.733,0.006-1.371,0.019-1.917c0.013-0.545,0.061-1.034,0.144-1.464c0.083-0.43,0.211-0.818,0.385-1.166
					c0.173-0.346,0.42-0.68,0.74-1.001c0.462-0.462,0.991-0.815,1.587-1.059c0.597-0.244,1.235-0.366,1.914-0.366
					c0.616,0,1.186,0.094,1.713,0.279c0.525,0.186,0.997,0.453,1.413,0.8c0.417,0.347,0.763,0.774,1.038,1.281
					c0.276,0.507,0.471,1.082,0.587,1.724h-1.5c-0.18-0.848-0.552-1.522-1.116-2.023c-0.564-0.501-1.276-0.751-2.135-0.751
					c-0.449,0-0.882,0.084-1.298,0.25c-0.417,0.167-0.773,0.405-1.068,0.713c-0.218,0.218-0.392,0.453-0.52,0.703
					c-0.128,0.25-0.224,0.553-0.289,0.906c-0.064,0.353-0.105,0.777-0.125,1.271c-0.019,0.495-0.029,1.102-0.029,1.821
					c0,0.719,0.01,1.326,0.029,1.82c0.019,0.495,0.061,0.918,0.125,1.272c0.064,0.354,0.16,0.655,0.289,0.905
					c0.128,0.25,0.301,0.485,0.52,0.703c0.295,0.308,0.651,0.546,1.068,0.713c0.416,0.167,0.849,0.25,1.298,0.25
					c0.859,0,1.577-0.25,2.154-0.751c0.577-0.501,0.955-1.175,1.135-2.023h1.462C47.613,15.723,47.417,16.298,47.141,16.805"/>
				<path fill="#00609D" stroke="#00609D" stroke-width="0.5728" stroke-miterlimit="10" d="M47.141,16.805
					c-0.276,0.508-0.622,0.934-1.038,1.281c-0.417,0.347-0.888,0.613-1.413,0.8c-0.526,0.186-1.097,0.279-1.713,0.279
					c-0.679,0-1.317-0.122-1.914-0.366c-0.596-0.244-1.125-0.597-1.587-1.059c-0.321-0.321-0.568-0.655-0.74-1.002
					c-0.173-0.347-0.302-0.735-0.385-1.165c-0.084-0.431-0.132-0.918-0.144-1.464c-0.013-0.546-0.019-1.185-0.019-1.917
					c0-0.733,0.006-1.371,0.019-1.917c0.013-0.545,0.061-1.034,0.144-1.464c0.083-0.43,0.211-0.818,0.385-1.166
					c0.173-0.346,0.42-0.68,0.74-1.001c0.462-0.462,0.991-0.815,1.587-1.059c0.597-0.244,1.235-0.366,1.914-0.366
					c0.616,0,1.186,0.094,1.713,0.279c0.525,0.186,0.997,0.453,1.413,0.8c0.417,0.347,0.763,0.774,1.038,1.281
					c0.276,0.507,0.471,1.082,0.587,1.724h-1.5c-0.18-0.848-0.552-1.522-1.116-2.023c-0.564-0.501-1.276-0.751-2.135-0.751
					c-0.449,0-0.882,0.084-1.298,0.25c-0.417,0.167-0.773,0.405-1.068,0.713c-0.218,0.218-0.392,0.453-0.52,0.703
					c-0.128,0.25-0.225,0.553-0.289,0.906c-0.064,0.353-0.105,0.777-0.125,1.271c-0.019,0.495-0.029,1.102-0.029,1.821
					c0,0.719,0.01,1.326,0.029,1.82c0.019,0.495,0.061,0.918,0.125,1.272c0.064,0.354,0.16,0.655,0.289,0.905
					c0.128,0.25,0.301,0.485,0.52,0.703c0.295,0.308,0.651,0.546,1.068,0.713c0.416,0.167,0.849,0.25,1.298,0.25
					c0.859,0,1.577-0.25,2.154-0.751c0.577-0.501,0.955-1.175,1.135-2.023h1.462C47.613,15.723,47.417,16.298,47.141,16.805z"/>
				<path fill="#00609D" stroke="#00609D" stroke-width="0.5728" stroke-miterlimit="10" d="M58.827,19.049l-3.116-6.088h-3.289
					v6.088H50.96V5.333h5.251c0.589,0,1.135,0.087,1.635,0.26c0.5,0.173,0.93,0.424,1.289,0.751c0.359,0.328,0.638,0.73,0.837,1.204
					c0.198,0.475,0.298,1.008,0.298,1.599c0,1.002-0.276,1.82-0.827,2.456c-0.552,0.636-1.27,1.044-2.154,1.223l3.251,6.223H58.827z
					 M58.048,7.269c-0.507-0.417-1.164-0.626-1.972-0.626h-3.655v5.028h3.655c0.808,0,1.465-0.206,1.972-0.617
					c0.506-0.411,0.76-1.04,0.76-1.888C58.808,8.319,58.555,7.686,58.048,7.269"/>
				<path fill="#00609D" stroke="#00609D" stroke-width="0.5728" stroke-miterlimit="10" d="M58.827,19.049l-3.116-6.088h-3.289
					v6.088H50.96V5.333h5.251c0.589,0,1.135,0.087,1.635,0.26c0.5,0.173,0.93,0.424,1.289,0.751c0.359,0.328,0.638,0.73,0.837,1.204
					c0.198,0.475,0.298,1.008,0.298,1.599c0,1.002-0.276,1.82-0.827,2.456c-0.552,0.636-1.27,1.044-2.154,1.223l3.251,6.223H58.827z
					 M58.048,7.269c-0.507-0.417-1.164-0.626-1.971-0.626h-3.655v5.028h3.655c0.808,0,1.465-0.206,1.971-0.617
					c0.506-0.411,0.76-1.04,0.76-1.888C58.808,8.319,58.555,7.686,58.048,7.269z"/>
				<polygon fill="#00609D" stroke="#00609D" stroke-width="0.5728" stroke-miterlimit="10" points="63.578,19.05 63.578,5.333 
					72.08,5.333 72.08,6.642 65.04,6.642 65.04,11.478 71.041,11.478 71.041,12.788 65.04,12.788 65.04,17.74 72.08,17.74 
					72.08,19.05 				"/>
				<polygon fill="#00609D" stroke="#00609D" stroke-width="0.5728" stroke-miterlimit="10" points="63.578,19.05 63.578,5.333 
					72.08,5.333 72.08,6.642 65.04,6.642 65.04,11.478 71.041,11.478 71.041,12.788 65.04,12.788 65.04,17.74 72.08,17.74 
					72.08,19.05 				"/>
				<path fill="#00609D" stroke="#00609D" stroke-width="0.5728" stroke-miterlimit="10" d="M84.611,13.539
					c-0.007,0.527-0.048,1.044-0.125,1.551c-0.077,0.508-0.209,0.992-0.394,1.455c-0.186,0.462-0.459,0.873-0.818,1.233
					c-0.41,0.411-0.911,0.725-1.5,0.944c-0.59,0.219-1.244,0.327-1.962,0.327h-4.693V5.333h4.693c0.718,0,1.372,0.109,1.962,0.327
					c0.589,0.219,1.09,0.533,1.5,0.944c0.359,0.36,0.632,0.755,0.818,1.185c0.185,0.43,0.317,0.88,0.394,1.348
					c0.077,0.469,0.118,0.951,0.125,1.445c0.007,0.494,0.009,0.979,0.009,1.454C84.621,12.512,84.618,13.013,84.611,13.539
					 M83.149,10.775c-0.007-0.417-0.035-0.816-0.087-1.194c-0.051-0.379-0.141-0.735-0.269-1.069
					c-0.128-0.334-0.308-0.623-0.538-0.867c-0.359-0.372-0.763-0.632-1.212-0.78c-0.449-0.147-0.942-0.221-1.481-0.221h-2.981
					v11.097h2.981c0.539,0,1.032-0.074,1.481-0.221c0.449-0.148,0.853-0.408,1.212-0.781c0.231-0.243,0.41-0.549,0.538-0.915
					c0.128-0.366,0.218-0.758,0.269-1.175c0.052-0.417,0.08-0.851,0.087-1.3c0.007-0.449,0.01-0.886,0.01-1.31
					C83.159,11.613,83.156,11.192,83.149,10.775"/>
				<path fill="#00609D" stroke="#00609D" stroke-width="0.5728" stroke-miterlimit="10" d="M84.611,13.539
					c-0.007,0.527-0.048,1.044-0.125,1.551c-0.077,0.508-0.209,0.992-0.394,1.455c-0.186,0.462-0.459,0.873-0.818,1.233
					c-0.41,0.411-0.911,0.725-1.5,0.944c-0.59,0.219-1.244,0.327-1.962,0.327h-4.693V5.333h4.693c0.718,0,1.372,0.109,1.962,0.327
					c0.589,0.219,1.09,0.533,1.5,0.944c0.359,0.36,0.632,0.755,0.818,1.185c0.185,0.43,0.317,0.88,0.394,1.348
					c0.077,0.469,0.118,0.951,0.125,1.445s0.009,0.979,0.009,1.454C84.621,12.512,84.618,13.013,84.611,13.539z M83.149,10.775
					c-0.007-0.417-0.035-0.816-0.087-1.194c-0.051-0.379-0.141-0.735-0.269-1.069c-0.128-0.334-0.308-0.623-0.538-0.867
					c-0.359-0.372-0.763-0.632-1.212-0.78c-0.449-0.147-0.942-0.221-1.481-0.221H76.58v11.097h2.981
					c0.539,0,1.032-0.074,1.481-0.221c0.448-0.148,0.853-0.408,1.212-0.781c0.231-0.243,0.41-0.549,0.538-0.915
					c0.128-0.366,0.218-0.758,0.269-1.175c0.052-0.417,0.08-0.851,0.087-1.3c0.007-0.449,0.01-0.886,0.01-1.31
					C83.159,11.613,83.156,11.192,83.149,10.775z"/>
				
					<rect x="88.063" y="5.333" fill="#00609D" stroke="#00609D" stroke-width="0.5728" stroke-miterlimit="10" width="1.462" height="13.717"/>
				
					<rect x="88.063" y="5.333" fill="#00609D" stroke="#00609D" stroke-width="0.5728" stroke-miterlimit="10" width="1.462" height="13.717"/>
				<path fill="#00609D" stroke="#00609D" stroke-width="0.5728" stroke-miterlimit="10" d="M102.221,19.724l-1.52-1.522
					c-0.833,0.642-1.814,0.963-2.943,0.963c-1.385,0-2.552-0.475-3.501-1.425c-0.321-0.321-0.568-0.655-0.74-1.002
					c-0.173-0.347-0.302-0.735-0.385-1.166c-0.084-0.43-0.132-0.918-0.144-1.464c-0.013-0.545-0.019-1.184-0.019-1.917
					c0-0.732,0.007-1.371,0.019-1.917C93,9.728,93.048,9.24,93.132,8.81c0.083-0.431,0.212-0.819,0.385-1.166
					c0.173-0.346,0.419-0.68,0.74-1.001c0.949-0.95,2.116-1.426,3.501-1.426c1.385,0,2.551,0.475,3.501,1.426
					c0.32,0.321,0.568,0.655,0.74,1.001c0.173,0.347,0.301,0.735,0.385,1.166c0.083,0.43,0.131,0.918,0.144,1.464
					c0.013,0.546,0.019,1.185,0.019,1.917c0,0.655-0.006,1.236-0.019,1.743c-0.013,0.508-0.047,0.963-0.106,1.368
					c-0.057,0.405-0.151,0.77-0.279,1.098c-0.128,0.327-0.308,0.639-0.538,0.934l1.501,1.503L102.221,19.724z M101.057,10.37
					c-0.019-0.494-0.061-0.915-0.125-1.262c-0.065-0.347-0.161-0.645-0.289-0.896c-0.128-0.25-0.301-0.485-0.52-0.704
					c-0.296-0.308-0.651-0.549-1.068-0.722c-0.417-0.174-0.849-0.26-1.298-0.26c-0.45,0-0.882,0.087-1.298,0.26
					c-0.417,0.174-0.773,0.414-1.068,0.722c-0.218,0.219-0.392,0.453-0.52,0.704c-0.128,0.25-0.224,0.549-0.288,0.896
					c-0.065,0.347-0.106,0.768-0.125,1.262c-0.019,0.494-0.029,1.101-0.029,1.82c0,0.719,0.009,1.327,0.029,1.821
					c0.019,0.494,0.061,0.915,0.125,1.262c0.064,0.347,0.16,0.645,0.288,0.896c0.128,0.25,0.301,0.485,0.52,0.703
					c0.295,0.308,0.651,0.549,1.068,0.722c0.416,0.173,0.849,0.26,1.298,0.26c0.718,0,1.365-0.218,1.942-0.655l-1.731-1.734
					l0.884-0.886l1.673,1.676c0.128-0.206,0.228-0.43,0.299-0.675c0.07-0.244,0.125-0.523,0.163-0.838
					c0.038-0.314,0.064-0.68,0.077-1.098c0.012-0.417,0.019-0.902,0.019-1.455C101.086,11.472,101.076,10.865,101.057,10.37"/>
				<path fill="#00609D" stroke="#00609D" stroke-width="0.5728" stroke-miterlimit="10" d="M102.221,19.724l-1.52-1.522
					c-0.833,0.642-1.814,0.963-2.943,0.963c-1.385,0-2.552-0.475-3.501-1.425c-0.321-0.321-0.568-0.655-0.74-1.002
					c-0.173-0.347-0.302-0.735-0.385-1.166c-0.084-0.43-0.132-0.918-0.144-1.464c-0.013-0.545-0.019-1.184-0.019-1.917
					c0-0.732,0.007-1.371,0.019-1.917C93,9.728,93.048,9.24,93.132,8.81c0.083-0.431,0.212-0.819,0.385-1.166
					c0.173-0.346,0.419-0.68,0.74-1.001c0.949-0.95,2.116-1.426,3.501-1.426c1.385,0,2.551,0.475,3.501,1.426
					c0.32,0.321,0.568,0.655,0.74,1.001c0.173,0.347,0.301,0.735,0.385,1.166c0.083,0.43,0.131,0.918,0.144,1.464
					c0.013,0.546,0.019,1.185,0.019,1.917c0,0.655-0.006,1.236-0.019,1.743c-0.013,0.508-0.048,0.963-0.106,1.368
					c-0.057,0.405-0.151,0.77-0.279,1.098c-0.128,0.327-0.308,0.639-0.538,0.934l1.501,1.503L102.221,19.724z M101.057,10.37
					c-0.019-0.494-0.061-0.915-0.125-1.262c-0.065-0.347-0.161-0.645-0.289-0.896c-0.128-0.25-0.301-0.485-0.52-0.704
					c-0.296-0.308-0.651-0.549-1.068-0.722c-0.417-0.174-0.849-0.26-1.298-0.26c-0.45,0-0.882,0.087-1.298,0.26
					c-0.417,0.174-0.773,0.414-1.068,0.722c-0.218,0.219-0.392,0.453-0.52,0.704c-0.128,0.25-0.224,0.549-0.288,0.896
					c-0.065,0.347-0.106,0.768-0.125,1.262c-0.019,0.494-0.029,1.101-0.029,1.82c0,0.719,0.009,1.327,0.029,1.821
					c0.019,0.494,0.061,0.915,0.125,1.262c0.064,0.347,0.16,0.645,0.288,0.896c0.128,0.25,0.301,0.485,0.52,0.703
					c0.295,0.308,0.651,0.549,1.068,0.722c0.416,0.173,0.849,0.26,1.298,0.26c0.718,0,1.365-0.218,1.942-0.655l-1.731-1.734
					l0.884-0.886l1.673,1.676c0.128-0.206,0.228-0.43,0.299-0.675c0.07-0.244,0.125-0.523,0.163-0.838
					c0.038-0.314,0.064-0.68,0.077-1.098c0.012-0.417,0.019-0.902,0.019-1.455C101.086,11.472,101.076,10.865,101.057,10.37z"/>
			</g>
			<g>
				<path fill="#161D29" d="M10.762,22.661c-3.661,0.084-6.847-1.58-8.971-4.683c0,0-0.094-0.124-0.328-0.54
					c-0.165-0.295-0.22-0.401-0.238-0.446C1.158,16.873,0.015,14.81,0,12.04c-0.009-1.668,0.385-3.264,1.173-4.742
					C2.156,5.454,3.757,3.789,5.93,2.351c1.721-1.138,4.128-1.822,6.605-1.879c2.902-0.066,5.636,0.728,7.698,2.236
					c0.552,0.443,0.843,0.802,0.855,0.817c0.029,0.037,0.028,0.089-0.004,0.124c-0.018,0.02-0.043,0.031-0.069,0.032
					c-0.018,0-0.037-0.004-0.054-0.015c-0.028-0.018-2.802-1.771-6.219-1.693c-0.218,0.005-0.438,0.017-0.652,0.037
					C9.268,2.448,4.506,6.025,4.737,13.026c0.001,0.016,0.09,1.651,0.989,3.459c1.072,2.156,2.761,3.549,5.02,4.14
					c0.734,0.192,1.468,0.281,2.182,0.265c3.535-0.081,5.774-2.719,6.269-3.363c0.066-0.086,0.246,0.015,0.194,0.127
					c-0.295,0.629-1.45,2.752-4.095,3.973C13.93,22.258,12.32,22.625,10.762,22.661z"/>
				<path fill="#161D29" d="M18.296,16.413c0.025-0.001,0.049,0.009,0.067,0.027l1.046,1.029l-1.028,1.632l-1.678,1.393
					l-3.763-3.796c-0.026-0.027-0.035-0.068-0.021-0.103c0.014-0.036,0.047-0.059,0.084-0.06L18.296,16.413z"/>
				
					<linearGradient id="SVGID_1_" gradientUnits="userSpaceOnUse" x1="-29.4353" y1="63.0633" x2="-21.224" y2="55.9923" gradientTransform="matrix(0.9997 -0.0228 0.0228 0.9997 47.6485 -37.7904)">
					<stop  offset="0.0607" style="stop-color:#5A1C0D"/>
					<stop  offset="0.3429" style="stop-color:#E43A29"/>
					<stop  offset="0.6373" style="stop-color:#5A1C0D"/>
				</linearGradient>
				<path fill="url(#SVGID_1_)" d="M19.33,22.796l1.156,1.16l5.292-0.121l-3.351-3.44C22.426,20.396,21.291,21.892,19.33,22.796z"/>
				<path fill="#471B12" d="M20.487,23.956c-0.025,0.001-0.049-0.009-0.067-0.027l-1.156-1.064
					c-0.022-0.022-0.032-0.054-0.027-0.085c0.005-0.031,0.025-0.058,0.053-0.071c1.916-0.883,3.051-2.358,3.062-2.372
					c0.016-0.021,0.041-0.035,0.067-0.037c0,0,0.002,0,0.003,0c0.025-0.001,0.05,0.01,0.068,0.028l3.351,3.456
					c0.027,0.027,0.035,0.068,0.021,0.103c-0.014,0.036-0.047,0.059-0.084,0.06L20.487,23.956z"/>
				<path fill="#471B12" d="M13.225,24.485c-4.738,0.108-7.578-2.077-7.606-2.1c-0.037-0.029-0.047-0.08-0.025-0.121
					c0.017-0.031,0.049-0.049,0.082-0.05c0.011,0,0.022,0.001,0.034,0.005c0.026,0.009,2.634,0.899,5.405,0.836l0,0
					c0.451-0.01,0.889-0.045,1.299-0.105c4.006-0.579,8.628-3.726,8.47-10.693c-0.083-3.652-2.681-7.069-6.042-7.948
					c-0.61-0.159-1.272-0.233-1.969-0.217c-2.267,0.052-4.52,1.047-5.483,1.704C7.374,5.807,7.356,5.813,7.338,5.813
					c-0.027,0.001-0.054-0.01-0.073-0.031C7.232,5.746,7.231,5.692,7.262,5.656c0.015-0.018,1.537-1.801,4.107-2.713
					c1.097-0.388,2.292-0.607,3.458-0.634c2.068-0.047,5.117,0.481,7.899,3.267c1.615,1.619,2.614,3.839,2.812,6.251
					c0.19,2.309-0.347,4.625-1.512,6.523c-0.955,1.558-2.281,2.933-3.837,3.978c-1.636,1.099-3.496,1.804-5.378,2.039
					C14.281,24.433,13.747,24.473,13.225,24.485z"/>
				<path fill="#E43A29" d="M22.347,20.413c0.604-0.641,1.137-1.336,1.584-2.067c2.31-3.77,2.104-9.251-1.285-12.656
					c-3.691-3.705-8.17-3.698-11.232-2.611C8.846,3.993,7.359,5.763,7.359,5.763c1.134-0.776,4.504-2.291,7.513-1.5
					c3.199,0.839,6.011,4.125,6.101,8.039c0.154,6.745-4.216,10.165-8.532,10.789c-3.256,0.471-6.734-0.735-6.734-0.735
					s3.401,2.676,9.102,1.962c1.576-0.197,3.062-0.711,4.398-1.455l1.176,1.084l5.454-0.067L22.347,20.413z"/>
				<path fill="#006CB6" d="M19.379,17.488l-1.017-0.981l-5.455,0.124l3.461,3.413c-1.422,0.751-3.305,1.222-5.581,0.626
					c-5.459-1.429-6.064-7.182-6.08-7.689c-0.246-7.444,4.97-10.708,9.44-11.115c3.79-0.346,6.932,1.671,6.932,1.671
					s-0.29-0.361-0.837-0.799C15.933-0.414,9.526,0.086,6.05,2.383c-9.47,6.269-4.672,14.518-4.672,14.518s0.002,0.027,0.235,0.442
					c0.233,0.415,0.324,0.533,0.324,0.533c3.726,5.447,9.762,5.291,13.386,3.618c2.734-1.261,3.845-3.465,4.077-3.987L19.379,17.488
					L19.379,17.488z"/>
				
					<linearGradient id="SVGID_2_" gradientUnits="userSpaceOnUse" x1="-47.8152" y1="47.8398" x2="-30.7951" y2="41.9638" gradientTransform="matrix(0.9997 -0.0228 0.0228 0.9997 47.6485 -37.7904)">
					<stop  offset="0" style="stop-color:#57BCE5;stop-opacity:0"/>
					<stop  offset="0.8098" style="stop-color:#57BCE5"/>
					<stop  offset="1" style="stop-color:#FFFFFF;stop-opacity:0.8"/>
				</linearGradient>
				<path fill="url(#SVGID_2_)" d="M3.806,17.139c-0.04-0.073-0.116-0.209-0.264-0.49c-0.143-0.269-0.169-0.344-0.191-0.404
					c-0.251-0.658-0.713-1.841-0.841-2.918C2.06,9.574,3.383,5.803,7.51,3.04c1.654-1.114,3.791-1.748,5.925-1.853
					c2.621-0.13,5.144,0.64,6.823,1.725c0.476,0.311,0.76,0.564,0.813,0.612l0.002-0.001c-0.048-0.058-0.333-0.392-0.83-0.791
					C15.933-0.419,9.526,0.08,6.05,2.377c-9.47,6.269-4.672,14.518-4.672,14.518s0.002,0.027,0.236,0.442
					c0.233,0.415,0.324,0.533,0.324,0.533L3.806,17.139z"/>
				
					<linearGradient id="SVGID_3_" gradientUnits="userSpaceOnUse" x1="-40.0136" y1="42.3472" x2="-24.6146" y2="50.0129" gradientTransform="matrix(0.9997 -0.0228 0.0228 0.9997 47.6485 -37.7904)">
					<stop  offset="0.25" style="stop-color:#5A1C0D"/>
					<stop  offset="1" style="stop-color:#E43A29"/>
				</linearGradient>
				<path fill="url(#SVGID_3_)" d="M23.972,18.301c2.309-3.769,2.104-9.251-1.285-12.656c-3.691-3.705-8.17-3.698-11.232-2.611
					c-2.499,0.888-3.974,2.588-4.052,2.68l0.001,0c0.608-0.435,3.031-1.963,5.78-2.088c2.818-0.129,6.241,0.892,8.489,4.206
					c0.506,0.745,0.873,1.573,1.102,2.444c0.801,3.042,0.255,6.141-1.251,8.445L23.972,18.301z"/>
				
					<linearGradient id="SVGID_4_" gradientUnits="userSpaceOnUse" x1="-41.7095" y1="62.5513" x2="-24.8366" y2="50.2108" gradientTransform="matrix(0.9997 -0.0228 0.0228 0.9997 47.6485 -37.7904)">
					<stop  offset="0.0268" style="stop-color:#FFFFFF"/>
					<stop  offset="0.3804" style="stop-color:#F2703D"/>
					<stop  offset="1" style="stop-color:#E43A29"/>
				</linearGradient>
				<path fill="url(#SVGID_4_)" d="M22.767,10.272c0.801,3.042,0.254,6.141-1.251,8.445c-1.758,2.666-4.676,4.515-7.859,4.937
					c-4.372,0.578-7.75-1.259-7.912-1.346l0.001-0.001c0.179,0.061,3.558,1.191,6.727,0.733c4.316-0.624,8.686-4.044,8.532-10.789
					L22.767,10.272z"/>
				
					<linearGradient id="SVGID_5_" gradientUnits="userSpaceOnUse" x1="-35.3514" y1="36.2073" x2="-48.0487" y2="52.7318" gradientTransform="matrix(0.9997 -0.0228 0.0228 0.9997 47.6485 -37.7904)">
					<stop  offset="0.1619" style="stop-color:#FFFFFF;stop-opacity:0"/>
					<stop  offset="0.4678" style="stop-color:#FFFFFF"/>
					<stop  offset="0.787" style="stop-color:#FFFFFF;stop-opacity:0"/>
				</linearGradient>
				<path opacity="0.45" fill="url(#SVGID_5_)" d="M1.988,17.614c-0.05-0.079-0.126-0.204-0.231-0.392
					c-0.175-0.312-0.214-0.394-0.221-0.411c-0.004-0.012-0.009-0.023-0.015-0.034c-0.012-0.02-1.179-2.064-1.19-4.83
					C0.325,10.329,0.71,8.782,1.476,7.349c0.961-1.798,2.527-3.424,4.657-4.834c1.677-1.108,4.029-1.776,6.453-1.831
					c1.677-0.038,3.295,0.216,4.754,0.734c-1.167-0.322-2.41-0.484-3.621-0.456c-0.105,0.002-0.21,0.006-0.316,0.011
					C11.161,1.084,9.022,1.754,7.38,2.86c-4.849,3.246-5.441,7.484-5.084,10.467c0.127,1.063,0.564,2.208,0.825,2.892l0.031,0.082
					c0.024,0.064,0.057,0.151,0.197,0.416c0.068,0.128,0.12,0.226,0.161,0.302L1.988,17.614z"/>
				
					<linearGradient id="SVGID_6_" gradientUnits="userSpaceOnUse" x1="-28.139" y1="50.3144" x2="-37.8125" y2="62.9031" gradientTransform="matrix(0.9997 -0.0228 0.0228 0.9997 47.6485 -37.7904)">
					<stop  offset="0.0268" style="stop-color:#FFFFFF;stop-opacity:0"/>
					<stop  offset="0.5" style="stop-color:#FFFFFF"/>
					<stop  offset="1" style="stop-color:#FFFFFF;stop-opacity:0"/>
				</linearGradient>
				<path opacity="0.45" fill="url(#SVGID_6_)" d="M12.239,23.572c-1.379,0.032-2.612-0.155-3.625-0.406
					c0.782,0.115,1.659,0.193,2.555,0.172l0,0c0.462-0.011,0.91-0.047,1.331-0.108c4.099-0.593,8.826-3.806,8.698-10.907l1.47-1.652
					c0.629,2.764,0.148,5.707-1.313,7.941c-1.731,2.626-4.619,4.44-7.723,4.852C13.174,23.526,12.705,23.561,12.239,23.572z"/>
				<g>
					<defs>
						<path id="SVGID_19_" d="M22.386,20.366c0.604-0.641,1.137-1.336,1.584-2.067c2.31-3.77,2.104-9.251-1.285-12.656
							c-3.691-3.705-8.17-3.698-11.232-2.611C8.885,3.945,7.398,5.716,7.398,5.716c1.134-0.776,4.504-2.291,7.513-1.5
							c3.199,0.839,6.011,4.125,6.101,8.039C21.166,19,16.796,22.42,12.48,23.044c-3.256,0.471-6.734-0.735-6.734-0.735
							s3.401,2.676,9.102,1.962c1.576-0.197,3.062-0.711,4.398-1.455l1.176,1.142l5.454-0.124L22.386,20.366z"/>
					</defs>
					<clipPath id="SVGID_8_">
						<use xlink:href="#SVGID_19_"  overflow="visible"/>
					</clipPath>
					
						<linearGradient id="SVGID_9_" gradientUnits="userSpaceOnUse" x1="-24.5593" y1="60.5022" x2="-29.0182" y2="60.1566" gradientTransform="matrix(0.9997 -0.0228 0.0228 0.9997 47.6485 -37.7904)">
						<stop  offset="0.3433" style="stop-color:#5A1C0D"/>
						<stop  offset="1" style="stop-color:#E43A29"/>
					</linearGradient>
					<path clip-path="url(#SVGID_8_)" fill="url(#SVGID_9_)" d="M20.972,21.674c-0.751,0.593-1.574,1.109-2.454,1.526l1.243,1.188
						l3.957-0.09L20.972,21.674z"/>
				</g>
				
					<linearGradient id="SVGID_10_" gradientUnits="userSpaceOnUse" x1="-40.4273" y1="44.7094" x2="-35.9697" y2="57.677" gradientTransform="matrix(0.9997 -0.0228 0.0228 0.9997 47.6485 -37.7904)">
					<stop  offset="0" style="stop-color:#0078BC"/>
					<stop  offset="1" style="stop-color:#004067"/>
				</linearGradient>
				<path fill="url(#SVGID_10_)" d="M15.629,16.569l-2.722,0.062l3.467,3.419c-1.426,0.762-3.321,1.245-5.615,0.645
					c-5.459-1.429-6.064-7.182-6.08-7.689C4.433,5.563,9.649,2.298,14.12,1.891l-0.724-0.18c-2.759,0.082-5.563,1.207-7.427,3.044
					c-2,1.972-2.95,4.11-3.381,6.4c-0.427,2.271,0.557,5.204,1.357,6.258c0.034,0.045,0.069,0.103,0.223,0.355
					c0.16,0.262,0.255,0.371,0.301,0.426c1.218,1.455,2.623,2.553,4.356,3.106c2.644,0.855,5.185,0.381,7.024-0.525
					c1.023-0.502,1.8-1.146,2.365-1.736L15.629,16.569z"/>
				
					<linearGradient id="SVGID_11_" gradientUnits="userSpaceOnUse" x1="-33.0243" y1="55.5768" x2="-32.3868" y2="52.3694" gradientTransform="matrix(0.9997 -0.0228 0.0228 0.9997 47.6485 -37.7904)">
					<stop  offset="0" style="stop-color:#57BCE5;stop-opacity:0"/>
					<stop  offset="0.8098" style="stop-color:#57BCE5"/>
					<stop  offset="1" style="stop-color:#FFFFFF;stop-opacity:0.8"/>
				</linearGradient>
				<path fill="url(#SVGID_11_)" d="M19.4,17.507l-0.02-0.019l0,0l-1.017-0.981l-5.455,0.124l3.461,3.413l-3.243-3.327l5.201-0.119
					L19.4,17.507z"/>
				
					<linearGradient id="SVGID_12_" gradientUnits="userSpaceOnUse" x1="-23.2668" y1="58.3462" x2="-33.5722" y2="58.8312" gradientTransform="matrix(0.9997 -0.0228 0.0228 0.9997 47.6485 -37.7904)">
					<stop  offset="0.0268" style="stop-color:#FFFFFF;stop-opacity:0"/>
					<stop  offset="0.5" style="stop-color:#FFFFFF"/>
					<stop  offset="1" style="stop-color:#FFFFFF;stop-opacity:0"/>
				</linearGradient>
				<path opacity="0.9" fill="url(#SVGID_12_)" d="M15.625,24.147c1.288-0.25,2.506-0.711,3.62-1.331l1.176,1.113l5.415,0.027
					l-3.451-3.59c0.604-0.641,1.137-1.336,1.584-2.067c0,0-1.066,1.383-1.651,2.004l-0.061,0.065l3.401,3.493l-5.202,0.004
					l-1.198-1.162l-0.059,0.033c-1.38,0.769-2.551,1.201-3.997,1.462C15.204,24.198,15.368,24.197,15.625,24.147z"/>
			</g>
		</g>
	</g>
</g>
</svg>
