<svg width="200" height="200" viewBox="0 0 200 200" fill="none" xmlns="http://www.w3.org/2000/svg">
<path d="M0 94.1082C1.97292 97.5302 1.97292 100.952 0 104.374C0 100.952 0 97.5302 0 94.1082Z" fill="#FEDE64"/>
<path d="M101.701 15.9594C112.753 37.6877 123.813 59.4161 134.865 81.1444C126.022 88.1282 117.633 95.6183 109.811 103.728C105.865 102.777 105.507 98.9618 103.901 96.212C101.902 92.7899 100.985 88.8441 98.9596 85.4394C98.366 84.8371 97.7724 84.8022 97.1788 85.4918C94.2019 90.7995 93.521 97.3905 88.0737 101.24C86.9388 100.236 85.8039 99.2325 84.6778 98.2373C83.6389 95.6794 81.0462 96.9715 79.2915 96.1509C78.2527 95.662 78.0083 95.9937 77.8773 96.8929C74.7521 98.1063 71.3125 98.3595 68.4928 100.533C63.1851 104.627 61.8757 109.219 64.6954 115.051C67.7159 121.319 70.6665 127.622 73.7831 133.837C74.4291 135.129 74.56 136.142 73.7743 137.294C71.4173 142.148 70.4919 147.621 67.2532 152.1C56.6291 155.033 45.8042 153.296 35.0666 153.348C33.277 153.357 31.8715 152.336 31.147 150.59C47.7422 114.448 65.4636 78.8485 83.5866 43.4494C88.3268 34.1871 92.7179 24.7241 98.3398 15.9332C99.4573 14.8769 100.575 14.8594 101.701 15.9594Z" fill="#20254C"/>
<path d="M144.511 101.397C152.691 117.504 160.819 133.636 169.094 149.69C170.797 152.999 169.74 153.689 166.493 153.662C155.755 153.575 145.018 153.549 134.28 153.68C131.233 153.715 129.557 152.536 128.475 149.778C126.528 144.828 124.346 139.965 122.259 135.068C127.986 122.733 135.738 111.733 144.511 101.397Z" fill="#21254C"/>
<path d="M99.4496 83.7111C102.907 90.3806 106.355 97.0589 109.812 103.728C106.067 108.364 102.33 112.991 98.2361 118.063C94.7966 112.371 91.4357 106.81 88.0747 101.249C90.9468 95.3915 93.8276 89.5251 96.6997 83.6674C97.6163 83.5801 98.533 83.6063 99.4496 83.7111Z" fill="#FDC901"/>
<path d="M77.869 96.8929C76.8825 96.7358 75.8873 96.5874 74.9009 96.4303C78.515 95.6708 82.2164 94.1169 85.3242 97.2596C85.394 97.3294 85.2631 97.6612 85.1583 97.8183C85.0448 97.9842 84.8441 98.0977 84.6782 98.2286C82.3997 97.7921 80.1387 97.3382 77.869 96.8929Z" fill="#241E42"/>
<path d="M31.1381 150.599C42.1288 153.322 53.2767 151.323 64.346 151.664C65.3587 151.698 66.4062 151.035 67.2443 152.1C66.8165 152.545 66.3801 152.982 65.9523 153.427C54.2544 154.946 42.5653 155.286 30.8936 153.217C29.7675 152.231 30.431 151.419 31.1381 150.599Z" fill="#251C4B"/>
<path d="M168.711 155.382C156.384 155.382 144.058 155.382 131.731 155.382C131.731 155.181 131.731 154.972 131.731 154.771C144.093 154.771 156.454 154.771 168.815 154.771C168.789 154.972 168.746 155.173 168.711 155.382Z" fill="#FEDF00"/>
<path d="M65.8045 154.422C66.206 156.421 64.6172 155.679 63.849 155.679C54.2463 155.731 44.6348 155.714 35.0234 155.705C33.5306 155.705 31.9942 155.819 30.9902 154.361C42.6008 153.505 54.2114 153.34 65.8045 154.422Z" fill="#FEDF00"/>
<path d="M65.8047 154.422C54.2029 154.405 42.6011 154.378 30.9992 154.361C30.9381 153.986 30.9032 153.602 30.8857 153.217C42.5749 153.287 54.264 153.357 65.9531 153.427C65.9357 153.767 65.892 154.099 65.8047 154.422Z" fill="#A77A3F"/>
<path d="M101.701 15.9595C100.583 15.9595 99.4574 15.9508 98.34 15.9508C97.5194 13.3755 99.6494 14.7985 100.374 14.6239C100.872 14.4929 102.949 13.8906 101.701 15.9595Z" fill="#FEDB00"/>
<path d="M99.4495 83.711C98.5067 85.1602 97.5901 85.0903 96.6909 83.6587C96.7695 82.6722 96.6211 81.2667 97.7821 81.1358C99.5805 80.9262 99.3186 82.5587 99.4495 83.711Z" fill="#FED900"/>
<path d="M0 87.6831C2.41814 86.4959 1.94673 84.0079 2.26973 82.0874C8.43293 44.6717 39.5981 1.53798 98.9604 0.0364659C138.096 -0.949996 168.257 18.1158 188.388 52.5895C168.589 59.163 151.487 69.7173 134.866 81.1358C132.727 81.0311 132.16 79.224 131.426 77.7836C121.588 58.4559 111.776 39.1108 102.199 19.6609C101.824 18.8927 101.606 18.0721 101.483 17.2341C102.243 15.558 101.265 15.6976 100.034 15.6889C98.7946 15.6802 97.843 15.5754 98.5414 17.2603C88.3189 37.4958 78.2185 57.7837 67.9698 77.9931C55.8704 101.834 44.2947 125.928 32.8762 150.083C32.4921 151.052 30.8946 151.821 32.431 153.104C32.8937 153.427 33.3564 153.663 33.8976 153.802C43.9717 154.099 54.0197 154.073 64.0414 153.82C64.4779 153.479 64.8795 153.113 65.2199 152.676C65.6739 151.952 66.1278 151.227 66.5818 150.502C69.8118 146.539 68.9912 140.402 73.7751 137.294C76.8742 137.312 77.2408 140.21 78.4193 141.991C82.4437 148.076 86.7213 153.933 92.6226 158.316C101.466 164.88 109.122 162.759 113.801 152.737C116.56 146.818 118.559 140.533 122.269 135.059C125.996 137.155 126.878 141.1 128.161 144.61C129.942 149.464 132.823 151.76 138.227 151.533C146.145 151.201 154.089 151.541 162.015 151.419C167.358 151.34 167.794 150.668 165.403 145.832C159.362 133.584 153.155 121.415 147.044 109.202C145.813 106.731 144.277 104.348 144.512 101.406C156.367 86.3038 171.121 74.3179 186.197 62.6026C190.588 59.1892 191.958 59.8876 193.8 64.785C209.069 105.256 195.459 151.925 160.418 178.315C147.358 188.145 132.745 194.457 116.516 197.023C114.56 197.329 112.081 196.849 110.99 199.363C108.406 199.363 105.831 199.363 103.247 199.363C100.235 198.306 97.2232 198.306 94.2114 199.363C92.0639 199.363 89.9077 199.363 87.7601 199.363C84.3294 196.988 80.2438 198.385 76.525 197.355C37.6776 186.565 12.8676 161.93 2.05149 123.292C1.02138 119.599 2.0253 115.575 0 112.092C0 109.525 0 106.958 0 104.392C1.08249 100.97 1.08249 97.5478 0 94.1257C0 91.9694 0 89.8306 0 87.6831Z" fill="#FEC900"/>
</svg>
