<svg width="200" height="183" viewBox="0 0 200 183" fill="none" xmlns="http://www.w3.org/2000/svg">
<path d="M129.051 43.2024C92.8928 78.6773 60.6347 117.836 31.6294 159.349L31.6474 159.367C83.3322 114.476 139.528 74.8135 200 42.6633V42.5914C176.35 41.6749 152.665 41.8546 129.051 43.2024Z" fill="#76BC21"/>
<path d="M10.4412 182.748H10.4771C41.8186 131.189 78.1742 82.7208 120.406 39.5364C115.302 26.3456 104.825 0 104.825 0C90.5202 16.138 77.8866 33.6059 66.2234 51.7387C43.7236 56.8964 21.5114 63.348 0 71.8304C0 71.8304 27.316 90.3585 40.7044 99.9191C29.3467 126.175 11.5015 179.549 10.4412 182.748ZM160.014 175.254L160.032 175.218C152.323 146.572 144.703 117.89 137.173 89.1545C118.537 101.213 100.296 113.829 82.4872 127.073C108.581 142.726 134.388 158.846 160.014 175.254Z" fill="#006937"/>
</svg>
