<svg width="200" height="163" viewBox="0 0 200 163" fill="none" xmlns="http://www.w3.org/2000/svg">
<path fill-rule="evenodd" clip-rule="evenodd" d="M171.056 14.0214C169.427 9.74534 167.633 4.04758 164.046 2.22123C157.889 -0.91747 135.831 0.0777209 128.011 0.438616C98.8991 1.79471 72.0289 5.0209 47.7395 11.1452C41.0903 12.8184 27.0919 15.2791 25.6264 19.7082C24.336 23.6015 27.2232 29.8571 29.1479 35.2705C31.0071 40.4761 32.4726 46.6114 36.3221 48.2518C40.3138 49.9578 47.477 47.0925 52.3765 45.7583C84.1571 37.0968 119.733 30.7538 157.266 29.3431C163.937 29.0915 175.07 31.4319 175.814 27.5605C175.77 24.8592 174.009 21.7861 171.056 14.0214Z" fill="#006DAA"/>
<path fill-rule="evenodd" clip-rule="evenodd" d="M194.733 100.363C191.375 90.8375 190.479 85.1944 186.531 83.2368C184.256 82.1104 181.259 82.8322 180.822 82.8759C180.581 82.8978 180.341 82.8431 180.111 82.8759C159.682 85.6756 142.272 90.3453 121.241 95.365C111.858 97.607 103.514 99.6849 92.6978 102.495C85.0753 104.486 69.3052 106.094 68.0804 113.913C67.3258 118.747 70.6285 123.362 72.0065 127.113C73.7454 131.826 74.7405 135.556 76.2935 139.952C78.7432 146.918 81.007 160.501 88.0718 162.426C92.8838 163.738 98.0784 160.687 103.054 158.861C132.451 148.023 158.293 138.027 187.252 127.113C191.736 125.418 199.053 123.635 199.742 119.982C200.726 114.667 198.867 112.065 194.733 100.363Z" fill="#DF002F"/>
<path fill-rule="evenodd" clip-rule="evenodd" d="M197.478 66.548C197.478 66.548 191.714 52.8887 189.111 45.8348C186.509 38.77 182.047 39.4262 182.047 39.4262C177.771 38.9669 145.104 40.1699 145.104 40.1699C70.2784 48.3502 33.1171 62.9609 14.9083 68.9103C-3.30054 74.8596 0.28655 82.9086 0.28655 82.9086L3.38152 95.1791L7.9638 112.896C10.5666 121.94 24.1931 115.247 24.1931 115.247C97.2799 89.2298 186.038 75.3845 193.092 73.9956C200.168 72.5848 197.478 66.548 197.478 66.548Z" fill="#F6DA3C"/>
</svg>
