<svg width="200" height="201" viewBox="0 0 200 201" fill="none" xmlns="http://www.w3.org/2000/svg">
<path d="M166.034 33.9259C165.148 33.4326 164.243 33.2974 163.195 33.4123C155.099 34.2909 146.996 35.1018 138.893 35.9331C133.27 36.5143 127.654 37.0955 122.038 37.697C119.754 37.9403 118.788 40.1569 120.186 41.9816C123.005 45.6513 125.843 49.294 128.709 52.9163C129.236 53.5854 129.236 53.8895 128.485 54.3964C123.701 57.5997 118.957 60.8571 114.199 64.1011C113.584 64.1957 112.962 64.2497 112.34 64.2497C77.3128 64.243 42.2785 64.243 7.25103 64.2362C6.45357 64.2362 5.62907 64.3579 4.8654 64.0064C4.24365 63.5874 4.50722 63.04 4.67618 62.5264C5.5277 59.8705 6.56846 57.2821 7.69707 54.7275C10.9545 47.3746 15.1446 40.5759 20.1861 34.3179C27.9648 24.647 37.3383 16.8683 48.2392 10.9279C57.8155 5.70388 68.0203 2.36535 78.786 0.689324C81.1041 0.331142 83.4424 0.148671 85.7943 0.108123C86.0781 0.101364 86.3822 0.209503 86.6458 0C86.7945 0 86.9364 0 87.0851 0C87.5919 0.243293 88.1258 0.054064 88.6462 0.114887C89.2274 0.054064 89.8221 0.243293 90.3966 0C126.924 0 163.445 0 199.973 0C199.987 0.0608234 199.973 0.121639 199.946 0.182463C199.777 0.689324 199.412 1.04751 199.047 1.41245C188.457 11.989 177.867 22.5722 167.271 33.142C166.926 33.4934 166.669 34.0205 166.034 33.9259Z" fill="#FE8200"/>
<path d="M0.385214 187.207C0.331149 187.424 0.216261 187.593 0 187.68C0 159.337 0 131 0 102.656C0.135163 102.589 0.250052 102.616 0.337907 102.737C0.527136 103.035 0.520378 103.373 0.533894 103.71C0.581202 105.15 0.567686 106.589 0.547411 108.036C0.608234 108.441 0.581201 108.84 0.581201 109.245C0.581201 134.251 0.581203 159.256 0.587961 184.254C0.587961 185.241 0.581201 186.227 0.385214 187.207Z" fill="#FEDE3F"/>
<path d="M0.209092 102.656H0.107718H0.00634766C0.00634766 98.1757 0.00634766 93.7018 0.00634766 89.2212C0.155027 89.1536 0.269916 89.1942 0.357772 89.3293C0.770019 90.6877 0.499691 92.0731 0.553756 93.445C0.594305 95.263 0.594305 97.0877 0.553756 98.9056C0.601063 99.7842 0.587547 100.663 0.567273 101.541C0.553756 101.94 0.546999 102.352 0.209092 102.656Z" fill="#FECD3F"/>
<path d="M90.3962 0.00683594C89.8353 0.439358 89.2068 0.162273 88.6053 0.196063C88.5513 0.148756 88.5378 0.101451 88.5648 0.0609024C88.5851 0.0271116 88.6121 0.00683594 88.6324 0.00683594C89.2203 0.00683594 89.8083 0.00683594 90.3962 0.00683594Z" fill="#FEA03B"/>
<path d="M88.6331 0.00683594C88.6263 0.0676593 88.6195 0.13524 88.606 0.196063C88.0992 0.141998 87.545 0.459632 87.0854 0.00683594C87.6058 0.00683594 88.1194 0.00683594 88.6331 0.00683594Z" fill="#FEC181"/>
<path d="M0.202747 89.2009C0.135165 89.2077 0.0675815 89.2144 0 89.2144C0 88.7751 0 88.3359 0 87.8898C0.10813 87.8155 0.209503 87.8222 0.304117 87.9169C0.446038 88.1196 0.479831 88.3426 0.479831 88.5792C0.459556 88.8225 0.419007 89.0522 0.202747 89.2009Z" fill="#FED77F"/>
<path d="M0.18923 87.8829C0.128407 87.8829 0.0608234 87.8896 0 87.8964C0 87.5315 0 87.1598 0 86.7948C0.0608234 86.7881 0.128407 86.7813 0.18923 86.7881C0.540654 87.153 0.540654 87.518 0.18923 87.8829Z" fill="#FEEBC1"/>
<path d="M199.961 107.502C200.089 112.503 199.623 117.47 198.812 122.397C196.453 136.663 191.128 149.74 182.572 161.412C168.529 180.578 149.863 192.763 126.601 197.831C120.235 199.217 113.774 199.811 107.259 199.805C87.3496 199.784 67.4401 199.798 47.5239 199.798C47.0846 199.798 46.6453 199.798 46.1182 199.798C46.5034 198.216 47.0846 196.797 47.6725 195.371C47.882 195 48.0713 194.608 48.1862 194.189C48.3416 193.925 48.3754 193.614 48.4835 193.337C52.5114 182.882 57.4651 172.887 63.0946 163.209C65.2775 159.661 67.3726 156.052 69.7244 152.606C71.1233 150.605 72.4209 148.537 73.8874 146.584C75.4485 144.327 77.1246 142.158 78.7398 139.941C80.2671 138.164 81.6458 136.271 83.1528 134.474C84.2544 133.149 85.3222 131.791 86.4846 130.52C87.0861 129.716 87.8092 129.02 88.4783 128.276C89.7015 126.85 90.9382 125.424 92.2155 124.046C93.6347 122.464 95.1688 121.005 96.6489 119.491C97.5342 118.396 98.5209 117.389 99.5211 116.402C100.393 115.429 101.481 114.699 102.387 113.767C103.211 112.969 104.008 112.158 104.813 111.34C105.36 110.766 105.968 110.259 106.597 109.773C107.246 109.185 107.827 108.529 108.476 107.928C109.016 107.549 109.483 107.022 110.233 107.063C111.111 107.137 111.997 107.137 112.875 107.137C141.158 107.137 169.448 107.137 197.731 107.144C198.487 107.144 199.285 106.954 199.961 107.502Z" fill="#B8D300"/>
<path d="M0.384302 187.207C0.127492 186.924 0.222107 186.579 0.222107 186.261C0.222107 160.263 0.222107 134.271 0.222107 108.272C0.222107 108.164 0.228866 108.049 0.235624 107.941C0.837099 107.434 1.56022 107.583 2.24279 107.583C15.7794 107.576 29.3159 107.576 42.8525 107.576C48.4618 107.576 54.0778 107.569 59.6871 107.583C60.4372 107.583 61.255 107.441 61.8091 108.184C58.4841 111.604 55.1186 114.983 51.8409 118.45C32.0395 139.387 14.6643 162.142 0.384302 187.207Z" fill="#FED400"/>
<path d="M166.034 33.9261C168.48 31.5066 170.94 29.094 173.38 26.6543C181.915 18.1323 190.444 9.60348 198.98 1.08145C199.29 0.770578 199.622 0.479976 199.939 0.182617C199.96 0.507008 200 0.838166 200 1.16256C200 22.2885 200 43.4145 200 64.5405C200 64.8311 199.973 65.1217 199.953 65.4191C199.385 65.8989 198.703 65.7705 198.054 65.7705C188.214 65.7772 178.381 65.7772 168.541 65.7772C168.176 65.7772 167.804 65.811 167.439 65.7705C166.365 65.6556 165.662 66.0476 165.446 67.1491C165.121 67.8858 164.554 68.3318 163.803 68.6427C162.695 69.1022 161.776 69.8997 160.735 70.4944C159.83 71.0148 159.417 71.0418 158.944 70.4741C159.14 69.2036 159.411 67.9466 159.83 66.7234C160.222 66.7842 160.553 66.6288 160.85 66.4057C161.884 65.6285 163.06 65.1082 164.243 64.6216C165.128 64.2567 165.534 63.6687 165.581 62.7023C165.831 57.4309 165.615 52.1663 165.702 46.895C165.716 46.1583 165.385 45.6447 164.919 45.1581C165.506 42.563 166.034 39.9543 166.709 37.3795C167.068 36.0616 166.912 34.9533 166.034 33.9261Z" fill="#5FAD00"/>
<path d="M2.00781 73.5759C2.29841 71.7714 2.67687 69.9873 3.29186 68.2572C3.68383 68.1355 4.08932 68.1423 4.49481 68.1423C38.1707 68.1558 71.8398 68.1423 105.516 68.1626C106.313 68.1626 107.239 67.872 107.84 68.7438C105.658 70.4941 103.441 72.204 101.143 73.7989C100.724 73.9678 100.285 73.9543 99.8455 73.9543C67.9809 73.9341 36.1094 73.9543 4.24476 73.9341C3.48785 73.9341 2.67687 74.1368 2.00781 73.5759Z" fill="#FE9300"/>
<path d="M107.833 68.7372C107.333 68.4263 106.766 68.5142 106.225 68.5074C72.4003 68.5074 38.5758 68.5074 4.75126 68.4939C4.26468 68.4939 3.71727 68.7034 3.2915 68.2506C3.57535 66.6692 4.05517 65.1486 4.64989 63.655C5.15675 63.9727 5.71768 63.8713 6.25833 63.8713C41.7048 63.8781 77.1446 63.8713 112.591 63.8781C113.138 63.8781 113.699 63.7834 114.206 64.0943C112.084 65.6487 109.955 67.1963 107.833 68.7372Z" fill="#FE8A00"/>
<path d="M2.00672 73.5759C34.4729 73.5759 66.939 73.5758 99.3984 73.5691C99.9864 73.5691 100.568 73.5758 101.129 73.7921C99.2565 75.4411 97.2629 76.9347 95.2692 78.4282C94.5664 78.854 93.7824 78.7796 93.012 78.7796C70.1289 78.7796 47.2458 78.7796 24.3559 78.7796C17.4491 78.7796 10.5423 78.7796 3.63544 78.7796C3.15561 78.7796 2.67578 78.8066 2.20271 78.7323C1.47959 78.6242 1.02003 78.2998 1.2836 77.4685C1.38497 76.1507 1.64178 74.8531 2.00672 73.5759Z" fill="#FE9C00"/>
<path d="M0.188477 87.883C0.188477 87.5181 0.188477 87.1531 0.188477 86.7882C0.316881 85.3082 0.316882 83.8146 0.648031 82.3549C1.30357 82.9631 2.12806 82.909 2.93228 82.909C13.5493 82.909 24.1664 82.909 34.7902 82.909C52.1722 82.909 69.5474 82.9023 86.9293 82.9225C87.6524 82.9225 88.5107 82.6454 89.0311 83.4835C87.078 85.3622 84.9559 87.045 82.8677 88.7616C82.2527 88.8832 81.6377 88.9238 81.0092 88.9238C54.7943 88.917 28.5862 88.9238 2.37136 88.9103C1.65499 88.9103 0.891323 89.0927 0.256057 88.5521C0.235783 88.3291 0.208751 88.106 0.188477 87.883Z" fill="#FEAD00"/>
<path d="M89.025 83.4835C88.5587 83.1726 88.0315 83.274 87.5247 83.274C58.9918 83.2673 30.4656 83.2673 1.93269 83.274C1.27715 83.274 0.520241 83.4362 0.648646 82.3549C0.689195 80.7059 0.912212 79.084 1.30419 77.4823C1.27715 78.1851 1.61506 78.4892 2.31791 78.4352C2.60851 78.4081 2.90587 78.4284 3.19647 78.4284C33.3784 78.4284 63.5535 78.4284 93.7354 78.4284C94.249 78.4284 94.7626 78.4352 95.2763 78.4352C93.2353 80.172 91.2011 81.9089 89.025 83.4835Z" fill="#FEA400"/>
<path d="M0.23584 98.9055C0.23584 97.0673 0.23584 95.2358 0.23584 93.3976C0.796766 92.911 1.4861 93.0394 2.13488 93.0394C10.6231 93.0327 19.1114 93.0326 27.5996 93.0326C43.4745 93.0326 59.3426 93.0259 75.2175 93.0462C75.9406 93.0462 76.7922 92.7623 77.3193 93.6003C75.2986 95.4453 73.2712 97.2903 71.2505 99.1353C70.8585 99.2366 70.4598 99.2704 70.0543 99.2704C47.4145 99.2502 24.7747 99.2637 2.13488 99.2569C1.4861 99.2637 0.796766 99.3921 0.23584 98.9055Z" fill="#FEBE00"/>
<path d="M77.3194 93.6071C76.8531 93.2827 76.3259 93.4044 75.8191 93.4044C50.6247 93.3976 25.4303 93.3976 0.235939 93.3976C0.222422 91.9987 0.215665 90.5998 0.202148 89.2008C0.215665 88.9846 0.235939 88.7683 0.249455 88.552C27.2821 88.552 54.3214 88.552 81.354 88.552C81.8609 88.552 82.388 88.4574 82.8611 88.7548C81.0161 90.3767 79.1644 91.9919 77.3194 93.6071Z" fill="#FEB500"/>
<path d="M0.236994 98.9056C23.3701 98.9056 46.5033 98.9056 69.6432 98.9056C70.1906 98.9056 70.7515 98.8245 71.2516 99.1422C69.6702 100.744 68.0483 102.291 66.3249 103.738C65.9059 103.9 65.4667 103.893 65.0206 103.893C44.0568 103.886 23.0998 103.893 2.13603 103.886C1.48725 103.886 0.797921 104.015 0.236994 103.528C0.230236 103.238 0.216719 102.94 0.209961 102.65C0.216719 101.406 0.230236 100.156 0.236994 98.9056Z" fill="#FEC600"/>
<path d="M199.96 107.502C170.508 107.502 141.062 107.502 111.61 107.509C110.982 107.509 110.367 107.461 109.772 107.272C109.759 107.198 109.725 107.103 109.765 107.063C110.989 105.704 112.097 104.204 113.989 103.677C114.543 103.603 115.091 103.616 115.645 103.616C143.043 103.616 170.447 103.616 197.844 103.623C198.561 103.623 199.324 103.454 199.966 103.981C199.96 105.15 199.96 106.326 199.96 107.502Z" fill="#B0CF00"/>
<path d="M0.23584 103.535C21.7605 103.535 43.292 103.535 64.8167 103.535C65.3236 103.535 65.8507 103.433 66.317 103.744C64.9451 105.36 63.3232 106.718 61.8093 108.184C61.1741 107.982 60.5253 107.928 59.863 107.928C39.9873 107.934 20.1116 107.934 0.23584 107.934C0.23584 106.475 0.23584 105.001 0.23584 103.535Z" fill="#FECE00"/>
<path d="M199.96 95.6075C199.96 96.7091 199.96 97.8107 199.96 98.9123C199.399 99.3989 198.71 99.2705 198.061 99.2705C190.607 99.2772 183.153 99.2772 175.699 99.2772C157.857 99.2772 140.009 99.2772 122.167 99.2705C121.437 99.2705 120.694 99.3651 119.998 99.0542C119.471 98.7163 119.66 98.3513 119.957 97.9864C120.39 97.4525 120.958 97.0808 121.525 96.7023C122.032 96.3644 122.505 95.986 122.978 95.6008C123.363 95.2899 123.776 95.1345 124.269 95.2493C134.312 95.2358 144.354 95.2831 154.397 95.2223C154.505 95.2223 154.613 95.2156 154.721 95.1953C154.938 95.175 155.167 95.175 155.357 95.2764C156.499 95.8643 157.641 95.7157 158.796 95.3169C159.344 95.2696 159.891 95.2426 160.445 95.2426C172.948 95.2426 185.451 95.2426 197.953 95.2493C198.636 95.2493 199.366 95.1007 199.96 95.6075Z" fill="#A1C900"/>
<path d="M119.714 98.6892C120.221 99.0001 120.782 98.9122 121.323 98.9122C147.538 98.9122 173.746 98.9122 199.961 98.9122C199.961 99.7908 199.961 100.676 199.961 101.555C199.4 102.041 198.71 101.913 198.062 101.913C191.344 101.92 184.626 101.92 177.902 101.92C158.52 101.92 139.13 101.92 119.748 101.92C118.836 101.92 117.91 101.98 117.025 101.656C116.7 101.514 116.389 101.264 116.693 100.933C117.565 100.007 118.342 98.9325 119.714 98.6892Z" fill="#A6CB00"/>
<path d="M116.605 101.318C118.787 101.724 120.991 101.541 123.187 101.541C148.78 101.555 174.373 101.548 199.966 101.548C199.966 102.359 199.966 103.163 199.966 103.974C171.589 103.974 143.211 103.974 114.834 103.974C114.395 103.974 113.955 103.968 113.509 103.961C113.584 103.055 114.449 102.825 114.956 102.291C115.476 101.92 115.794 101.197 116.605 101.318Z" fill="#ABCD00"/>
<path d="M199.96 87.6734C199.96 89.0655 199.96 90.4645 199.96 91.8567C199.541 92.2419 199.014 92.2148 198.507 92.2148C186.16 92.2216 173.806 92.2216 161.459 92.2148C161.053 92.2148 160.648 92.2148 160.269 92.0594C159.729 91.7553 159.884 91.2619 159.945 90.8092C160.053 89.9441 160.384 89.1331 160.472 88.2613C160.567 87.8964 160.749 87.6125 161.114 87.4571C161.608 87.2814 162.128 87.3084 162.642 87.3084C174.489 87.3017 186.336 87.3017 198.183 87.3084C198.784 87.3219 199.433 87.2138 199.96 87.6734Z" fill="#92C200"/>
<path d="M160.067 91.8635C173.367 91.8635 186.661 91.8635 199.961 91.8635C199.961 93.1138 199.961 94.3573 199.961 95.6075C186.147 95.6075 172.333 95.6075 158.526 95.6075C159.297 94.4654 159.236 92.9786 160.067 91.8635Z" fill="#9BC600"/>
<path d="M199.96 87.6733C186.957 87.6733 173.955 87.6733 160.945 87.6733C160.553 86.2473 161.067 84.9903 161.675 83.7468C161.999 83.517 162.371 83.5576 162.736 83.5576C174.542 83.5846 186.356 83.5576 198.162 83.5711C198.777 83.5711 199.419 83.463 199.953 83.9225C199.96 85.1795 199.96 86.4298 199.96 87.6733Z" fill="#89BE00"/>
<path d="M199.961 83.9296C187.756 83.9296 175.551 83.9228 163.339 83.9431C162.764 83.9431 162.183 83.7201 161.609 83.9296C161.575 83.8755 161.541 83.8282 161.5 83.7742C161.663 82.7334 161.548 81.598 162.528 80.8344C163.102 80.6586 163.69 80.7059 164.278 80.7059C175.503 80.7059 186.729 80.6992 197.954 80.7127C198.637 80.7127 199.36 80.564 199.961 81.0709C199.961 82.0238 199.961 82.9767 199.961 83.9296Z" fill="#84BD00"/>
<path d="M199.96 81.0641C187.397 81.0641 174.833 81.0641 162.27 81.0641C161.959 80.6046 162.25 80.1247 162.229 79.6584C162.459 79.0096 162.385 78.2054 163.176 77.8472C174.989 77.8405 186.802 77.8405 198.615 77.8472C199.088 77.8472 199.575 77.8405 199.96 78.1987C199.96 79.1583 199.96 80.1112 199.96 81.0641Z" fill="#7FBB00"/>
<path d="M165.142 67.4125C165.203 67.1287 165.304 66.8448 165.318 66.561C165.358 65.5878 165.892 65.4121 166.771 65.4121C177.834 65.4391 188.897 65.4256 199.967 65.4256C199.967 66.3785 199.967 67.3314 199.967 68.2911C199.548 68.6763 199.021 68.6493 198.514 68.6493C187.775 68.656 177.043 68.656 166.304 68.6493C165.899 68.6493 165.493 68.6493 165.115 68.4871C164.514 68.1086 164.98 67.7639 165.142 67.4125Z" fill="#64B000"/>
<path d="M199.96 78.2052C188.119 78.2052 176.272 78.2052 164.432 78.2052C163.925 78.2052 163.398 78.2796 162.932 77.989C162.621 76.732 162.878 75.9075 163.756 75.3127C164.297 75.1708 164.851 75.2046 165.398 75.2046C176.252 75.2046 187.099 75.1979 197.953 75.2114C198.635 75.2114 199.358 75.0627 199.96 75.5695C199.96 76.4413 199.96 77.3199 199.96 78.2052Z" fill="#79B900"/>
<path d="M116.606 101.318C116.099 101.683 115.592 102.055 115.092 102.42C114.558 101.473 115.18 100.71 115.707 100.162C116.707 99.1081 117.302 97.8037 118.18 96.6819C118.991 95.6479 119.836 94.6274 120.62 93.5732C121.1 92.8636 121.81 92.3364 122.168 91.5322C122.546 90.7145 123.08 90.0251 123.79 89.471C124.574 88.5519 125.317 87.5719 126.182 86.7474C128.703 84.355 130.69 81.4828 133.346 79.1986C135.17 77.6307 136.819 75.8465 138.624 74.2448C139.989 73.0284 141.449 71.9403 142.915 70.859C143.618 71.3997 143.821 72.3188 144.476 72.8932C144.395 73.319 144.118 73.6096 143.794 73.8596C140.692 76.2655 137.82 78.9418 135.015 81.672C133.663 82.9899 132.366 84.4024 130.98 85.6526C128.588 87.8085 126.777 90.4306 124.635 92.7825C123.506 94.026 122.742 95.5668 121.715 96.8982C120.985 97.4253 120.221 97.9051 119.721 98.6823C118.613 99.4865 117.511 100.291 116.606 101.318Z" fill="#4FA400"/>
<path d="M199.96 75.5629C187.836 75.5629 175.718 75.5629 163.594 75.5629C163.385 75.3602 163.331 75.1034 163.337 74.8263C163.513 74.1302 163.304 73.2652 164.196 72.8867C164.696 72.7448 165.216 72.7786 165.73 72.7786C176.509 72.7786 187.288 72.7718 198.068 72.7853C198.716 72.7853 199.399 72.6569 199.967 73.1435C199.96 73.9477 199.96 74.752 199.96 75.5629Z" fill="#74B600"/>
<path d="M199.961 73.1367C187.985 73.1367 176.01 73.1367 164.034 73.1367C163.588 72.123 163.94 71.2918 164.636 70.5416C165.156 70.3118 165.717 70.3524 166.265 70.3524C176.902 70.3456 187.539 70.3456 198.177 70.3524C198.792 70.3524 199.44 70.251 199.961 70.7106C199.961 71.5216 199.961 72.3325 199.961 73.1367Z" fill="#6FB400"/>
<path d="M199.96 70.7174C188.133 70.7174 176.307 70.7174 164.473 70.7174C164.432 70.6769 164.392 70.6295 164.351 70.589C164.176 69.7375 164.378 68.9738 164.912 68.298C176.59 68.298 188.275 68.298 199.953 68.298C199.96 69.1022 199.96 69.9064 199.96 70.7174Z" fill="#6AB200"/>
<path d="M121.702 96.8982C121.756 96.0331 122.432 95.4925 122.837 94.8302C124.02 92.8974 125.554 91.2349 127.014 89.5183C127.649 88.7681 128.237 87.9774 128.879 87.2273C129.859 86.0851 130.967 84.9701 132.062 84.0442C133.792 82.5844 135.259 80.8679 136.982 79.4013C139.496 77.2658 141.895 74.9747 144.463 72.8865C145.098 73.4609 145.477 74.2178 145.95 74.9072C146.193 75.2451 145.997 75.4681 145.734 75.6303C144.625 76.3196 143.686 77.2252 142.672 78.0362C140.429 79.8406 138.394 81.8883 136.252 83.8009C134.576 85.3012 133.515 87.3557 131.629 88.6262C131.217 88.9033 131.163 89.4439 130.92 89.8494C130.778 90.0725 130.602 90.2617 130.406 90.4374C129.379 91.2484 128.325 92.0256 127.324 92.8636C126.128 93.6205 125.189 94.7288 123.891 95.3438C123.047 95.6952 122.506 96.4859 121.702 96.8982Z" fill="#53A600"/>
<path d="M164.933 45.1648C165.73 45.158 166.028 45.5905 166.028 46.3407C166.021 51.3552 166.021 56.3698 166.028 61.3843C166.028 61.952 165.886 62.4926 165.94 63.0941C166.001 63.7361 165.622 64.4795 164.879 64.7363C163.318 65.277 161.871 66.0136 160.554 67.0206C160.182 67.3044 159.81 67.4869 159.844 66.73C160.358 64.466 160.858 62.1953 161.385 59.9313C162.5 55.1398 163.629 50.355 164.764 45.5635C164.791 45.4216 164.872 45.2999 164.933 45.1648Z" fill="#56AA00"/>
<path d="M142.908 70.8591C142.239 72.2647 140.705 72.6837 139.657 73.684C137.853 75.4276 135.866 76.9819 134.156 78.8337C133.102 79.9826 131.892 80.9895 130.764 82.0708C130.446 82.3749 130.142 82.6926 129.871 83.0373C128.033 85.3823 125.877 87.43 123.904 89.6602C123.194 89.079 122.965 87.626 123.553 86.6934C123.776 86.342 123.593 86.2947 123.424 86.146C123.248 85.4364 123.965 85.0985 124.1 84.5173C127.871 81.0368 131.872 77.82 135.852 74.5828C137.562 73.1974 139.299 71.8457 141.022 70.4806C142.124 69.6156 142.131 69.6223 142.908 70.8591Z" fill="#49A200"/>
<path d="M163.594 74.9005C163.594 75.1235 163.594 75.3398 163.594 75.5628C162.992 76.2657 163.256 77.2051 162.932 77.989C162.783 78.577 162.634 79.1649 162.492 79.7529C162.229 80.2665 161.742 80.5233 161.316 80.8612C159.836 82.0439 158.383 83.2604 156.897 84.4295C155.153 85.8014 153.436 87.1936 151.794 88.6871C151.409 89.0386 150.956 89.2751 150.402 89.194C149.435 88.7142 149.104 87.6734 148.422 86.9368C148.327 86.7408 148.26 86.538 148.327 86.315C149.787 85.2945 150.868 83.8348 152.348 82.8481C154.633 83.5645 155.991 82.794 156.545 80.4625C156.606 80.2192 156.701 79.9826 156.775 79.7461C158.775 77.8538 161.228 76.5698 163.391 74.887C163.438 74.8464 163.526 74.8667 163.594 74.9005Z" fill="#72B400"/>
<path d="M104.961 111.489C104.211 112.341 103.427 113.158 102.515 113.848C102.076 113.483 102.055 112.956 102.022 112.449C101.934 111.239 102.082 110.043 102.211 108.847C102.265 108.333 102.441 107.826 102.785 107.441C103.981 106.11 104.299 104.292 105.353 102.886C105.502 102.683 105.597 102.433 105.522 102.163C107.969 99.4596 110.571 96.9253 113.24 94.4518C113.815 94.81 113.896 94.9519 113.558 95.4723C113.078 96.2021 112.726 97.0199 112.037 97.6078C111.206 98.3175 110.929 99.3988 110.368 100.291C109.104 102.278 107.82 104.271 106.955 106.488C106.739 107.042 106.421 107.515 106.056 107.982C105.549 108.624 105.259 109.374 105.245 110.212C105.238 110.665 105.205 111.104 104.961 111.489Z" fill="#3E9C00"/>
<path d="M130.744 89.8699C130.879 88.9846 131.345 88.3358 132.116 87.8695C132.818 87.4437 133.264 86.7611 133.744 86.1191C135.211 84.1525 137.231 82.74 138.887 80.9694C140.185 79.5772 141.726 78.4418 143.192 77.2997C143.969 76.6982 144.442 75.5291 145.652 75.4615C145.868 75.448 145.943 75.1574 145.956 74.9276C146.666 75.5629 147.186 76.3536 147.707 77.1443C147.598 78.3472 146.49 78.7865 145.787 79.4961C145.328 79.9557 144.699 80.3206 144.118 80.6788C141.05 82.6184 138.137 84.7675 135.238 86.9368C134.116 87.7411 133.008 88.5723 131.879 89.363C131.541 89.5928 131.264 90.0186 130.744 89.8699Z" fill="#5AA900"/>
<path d="M124.107 84.5175C124.263 85.2 123.641 85.5785 123.472 86.1327C123.343 86.6936 122.965 87.1126 122.607 87.5181C121.039 89.309 119.478 91.1405 118.187 93.1206C116.295 96.0266 114.112 98.7366 112.449 101.798C111.861 102.879 111.132 103.9 110.449 104.941C109.753 106.002 109.334 107.225 108.496 108.205C107.935 108.813 107.387 109.428 106.691 109.888C106.151 109.631 106.158 109.144 106.408 108.779C107.469 107.218 107.827 105.306 109.138 103.839C109.78 103.123 110.064 102.068 110.645 101.224C111.733 99.6422 112.47 97.831 113.646 96.3037C114.848 94.7425 115.565 92.857 117.025 91.4784C117.275 91.2418 117.518 90.9242 117.464 90.512C119.579 88.4102 121.769 86.3759 124.107 84.5175Z" fill="#439E00"/>
<path d="M96.7771 119.579C95.3106 121.113 93.8441 122.64 92.3775 124.174C91.9518 123.721 92.0667 123.154 92.0464 122.62C91.9923 120.876 92.168 119.126 91.8774 117.389C93.3304 115.47 94.8983 113.652 96.5608 111.901C97.0677 111.942 97.0947 112.361 97.1082 112.699C97.1893 114.693 97.1691 116.686 97.1218 118.68C97.1082 119.011 96.9731 119.308 96.7771 119.579Z" fill="#279300"/>
<path d="M63.3033 163.29C61.6746 166.271 60.0256 169.238 58.4307 172.238C54.93 178.827 51.8415 185.613 48.9963 192.506C48.8612 192.837 48.6855 193.155 48.5233 193.479C48.4084 193.384 48.4016 193.276 48.4962 193.161C49.9154 188.965 51.6252 184.876 53.3621 180.807C56.2208 174.076 59.2755 167.433 62.7694 161.006C63.4993 161.439 63.6412 162.054 63.3033 163.29Z" fill="#017527"/>
<path d="M105.521 102.177C106.076 102.501 105.765 102.94 105.542 103.204C104.393 104.535 104.244 106.4 102.974 107.691C102.183 108.489 102.44 109.752 102.332 110.813C102.23 111.82 102.244 112.861 102.521 113.861C101.71 114.909 100.615 115.666 99.6824 116.598C99.4324 116.402 99.3445 116.112 99.3445 115.821C99.3445 113.422 99.1418 111.016 99.4797 108.624C101.399 106.38 103.386 104.211 105.521 102.177Z" fill="#379900"/>
<path d="M117.469 90.5188C117.943 90.8499 117.625 91.127 117.422 91.4379C116.807 92.3908 115.793 93.0531 115.374 94.1276C114.834 95.5131 113.624 96.439 112.996 97.7365C112.137 99.5207 110.853 101.048 109.988 102.778C109.583 103.589 109.015 104.231 108.603 104.988C108.177 105.758 107.853 106.583 107.447 107.374C107.258 107.739 107.17 108.178 106.879 108.495C106.487 108.928 106.386 109.381 106.71 109.888C106.129 110.422 105.548 110.955 104.974 111.489C104.872 109.915 105.183 108.57 106.271 107.252C107.204 106.117 107.636 104.569 108.245 103.184C108.359 102.92 108.4 102.629 108.603 102.406C109.758 101.143 110.387 99.568 111.238 98.1217C111.786 97.2026 112.644 96.4052 113.273 95.4725C113.536 95.0806 113.712 94.7967 113.252 94.4723C114.618 93.1139 115.888 91.6474 117.469 90.5188Z" fill="#439D00"/>
<path d="M78.9285 140.056C77.3065 142.266 75.6913 144.476 74.0693 146.679C73.7112 146.537 73.5828 146.226 73.5828 145.888C73.5625 144.692 73.3868 143.496 73.6368 142.306C75.2588 139.569 77.0294 136.934 78.9285 134.386C79.1042 134.535 79.2191 134.737 79.2191 134.96C79.2123 136.663 79.5975 138.393 78.9285 140.056Z" fill="#008315"/>
<path d="M63.3029 163.291C63.1881 162.513 63.2354 161.696 62.769 161C64.8979 156.803 67.1686 152.68 69.6826 148.7C70.1422 148.727 70.176 149.098 70.1963 149.403C70.2706 150.518 70.3922 151.64 69.9192 152.714C67.7093 156.235 65.5061 159.763 63.3029 163.291Z" fill="#017C20"/>
<path d="M78.9291 140.056C78.9291 138.164 78.9291 136.278 78.9224 134.386C80.2875 132.257 81.7608 130.209 83.3422 128.243C83.4503 128.344 83.5652 128.466 83.572 128.608C83.6733 130.601 83.9775 132.609 83.3287 134.568C81.9095 136.434 80.4903 138.299 78.9291 140.056Z" fill="#00880B"/>
<path d="M91.8761 117.382C92.4573 117.612 92.383 118.112 92.383 118.585C92.383 120.444 92.3762 122.309 92.3762 124.167C91.1259 125.566 89.8757 126.965 88.6187 128.371C88.3889 128.155 88.3146 127.871 88.3146 127.58C88.3146 125.587 88.1456 123.593 88.4294 121.606C89.4972 120.126 90.6394 118.72 91.8761 117.382Z" fill="#199000"/>
<path d="M163.595 74.9005C162.25 76.1102 160.831 77.1915 159.196 78.016C158.5 78.3674 158.196 79.273 157.385 79.5906C157.175 79.6717 156.986 79.7393 156.77 79.7461C157.08 77.8741 157.533 76.0358 158.074 74.2247C158.608 74.2517 159.067 74.1098 159.486 73.7583C160.737 72.7041 162.284 72.0418 163.413 70.8253C163.71 70.5009 164.089 70.386 164.474 70.7239C164.447 71.5552 163.98 72.3053 164.035 73.1434C163.656 73.6637 163.866 74.3463 163.595 74.9005Z" fill="#6AB200"/>
<path d="M99.4791 108.61C99.8508 109.225 99.6345 109.901 99.6481 110.543C99.6818 112.557 99.6751 114.571 99.6818 116.592C98.7154 117.592 97.749 118.585 96.7826 119.585C96.7893 117.328 96.7961 115.071 96.7894 112.814C96.7894 112.496 96.8772 112.145 96.5596 111.908C97.4381 110.726 98.4451 109.651 99.4791 108.61Z" fill="#319700"/>
<path d="M83.3345 134.568C83.3412 132.46 83.3412 130.351 83.348 128.243C84.2941 126.851 85.2808 125.492 86.3891 124.222C86.7338 124.174 86.8825 124.431 86.8893 124.674C86.9839 126.661 87.3218 128.662 86.646 130.622C85.5444 131.939 84.4361 133.251 83.3345 134.568Z" fill="#018C01"/>
<path d="M152.349 82.8482C152.295 83.0172 152.295 83.2875 152.18 83.3416C150.707 84.0917 150.045 85.8488 148.382 86.3489C148.011 86.4503 147.842 86.153 147.7 85.9299C147.037 84.8824 145.909 84.1255 145.699 82.7941C147.193 82.0102 148.328 80.7464 149.693 79.8003C150.721 80.7059 151.254 82.017 152.349 82.8482Z" fill="#69B000"/>
<path d="M69.9128 152.707C69.7574 151.376 70.1561 150.011 69.6763 148.693C70.886 146.496 72.1903 144.361 73.6365 142.306C73.988 143.252 73.8258 144.232 73.8596 145.199C73.8798 145.699 73.7785 146.212 74.0691 146.679C72.6836 148.686 71.2982 150.7 69.9128 152.707Z" fill="#007F1B"/>
<path d="M164.481 70.7173C163.73 70.4469 163.379 71.1633 163.082 71.4944C162.007 72.6771 160.405 73.0961 159.331 74.2585C159.067 74.5424 158.479 74.8194 158.081 74.218C158.27 72.9474 158.554 71.6972 158.959 70.4739C159.601 70.9876 160.142 70.5415 160.628 70.2239C161.02 69.9738 161.534 69.7914 161.798 69.5346C162.771 68.5682 164.244 68.4398 165.143 67.4058C165.068 67.6964 164.994 67.9937 164.92 68.2843C164.893 69.1223 164.42 69.8725 164.481 70.7173Z" fill="#63AF00"/>
<path d="M149.706 79.8002C149.801 80.3747 149.301 80.5571 148.977 80.7734C148.186 81.287 147.409 81.8006 146.848 82.5711C146.55 82.9765 146.118 82.7738 145.739 82.8279C144.786 82.2872 144.131 81.5303 143.969 80.4084C145.401 79.5231 146.713 78.5026 147.713 77.1307C148.497 77.9282 149.071 78.8879 149.706 79.8002Z" fill="#61AC00"/>
<path d="M86.6459 130.622C86.6459 128.865 86.6527 127.101 86.6391 125.344C86.6391 124.958 86.7878 124.526 86.3823 124.222C86.9906 123.289 87.6799 122.424 88.43 121.613C88.8288 122.336 88.599 123.113 88.6125 123.863C88.6531 125.364 88.6193 126.871 88.6125 128.371C87.9637 129.121 87.3014 129.871 86.6459 130.622Z" fill="#0A8D00"/>
<path d="M48.2058 194.256C48.2261 194.716 48.0977 195.108 47.6787 195.365C47.7463 194.966 47.7193 194.527 48.1383 194.283L48.2058 194.256Z" fill="#4CA63A"/>
<path d="M45.7996 200.129C45.7456 200.19 45.6577 200.372 45.5699 200.372C45.3401 200.372 45.1914 200.203 45.1576 199.974C45.1171 199.751 45.2995 199.757 45.4279 199.771C45.6037 199.778 45.7794 199.832 45.7996 200.129Z" fill="#439167"/>
<path d="M48.2051 194.256L48.1443 194.283C48.0429 193.837 48.2727 193.493 48.4957 193.155C48.5025 193.263 48.516 193.364 48.5227 193.472C48.5768 193.797 48.4146 194.04 48.2051 194.256Z" fill="#2C9137"/>
<path d="M108.503 108.205C108.462 108.07 108.34 107.833 108.388 107.806C109.287 107.097 109.449 105.954 110.016 105.049C111.442 102.785 113.004 100.602 114.261 98.2231C114.524 97.7162 114.99 97.3175 115.342 96.8512C117.004 94.621 118.322 92.1475 120.228 90.066C121.12 89.0861 121.857 87.9372 122.729 86.9099C122.965 86.6328 123.12 86.2949 123.472 86.126C123.857 86.1463 124.29 86.0381 124.513 86.5247C123.31 86.8356 123.168 87.6263 123.911 89.6537C123.276 90.2214 122.735 90.8634 122.37 91.6339C121.884 91.9583 121.553 92.7557 120.762 92.2759C120.85 92.6408 121.208 93.1139 120.829 93.614C119.829 94.9386 118.674 96.1821 117.883 97.6216C116.991 99.2436 115.186 100.345 115.099 102.42C114.571 102.934 114.044 103.447 113.517 103.961C112.166 104.947 110.922 106.049 109.78 107.265C109.347 107.583 108.928 107.894 108.503 108.205Z" fill="#49A000"/>
<path d="M123.898 95.3575C124.871 94.3235 126.007 93.4923 127.203 92.7354C127.534 92.5394 127.899 92.5529 128.27 92.5529C136.38 92.6408 144.497 92.6543 152.607 92.5461C153.309 92.5934 153.668 93.1071 154.053 93.5937C154.31 94.2222 155.026 94.6074 155.006 95.3846C154.607 95.6279 154.168 95.6076 153.728 95.6076C144.159 95.6076 134.596 95.6076 125.027 95.6008C124.641 95.6008 124.202 95.7427 123.898 95.3575Z" fill="#9BC600"/>
<path d="M154.998 95.3847C154.633 94.871 154.261 94.3574 153.896 93.8438C155.674 92.2151 157.438 90.5593 159.337 89.0725C159.749 88.7549 160.087 88.2413 160.729 88.3359C160.506 89.5118 160.29 90.6877 160.067 91.8637C159.898 92.6273 159.763 93.4045 159.546 94.1547C159.377 94.7426 159.046 95.2562 158.519 95.6077C157.296 96.4119 156.14 95.9929 154.998 95.3847Z" fill="#87BD00"/>
<path d="M160.729 88.3357C158.708 89.8901 156.728 91.485 154.957 93.3165C154.673 93.6138 154.315 93.7963 153.896 93.8436C153.599 93.4787 153.308 93.107 153.011 92.742C152.517 92.4109 152.004 92.0932 152.126 91.3634C152.828 91.0322 153.41 90.5254 153.957 89.9915C156.099 87.8964 158.505 86.1258 160.789 84.2065C161.026 84.0105 161.208 83.6456 161.614 83.9294C161.391 85.1797 161.175 86.4232 160.952 87.6734C160.877 87.8964 160.803 88.1127 160.729 88.3357Z" fill="#80BA00"/>
<path d="M161.615 83.9295C160.25 85.0378 158.912 86.1732 157.513 87.241C155.992 88.4034 154.648 89.7483 153.242 91.0391C152.938 91.3162 152.559 91.4513 152.133 91.4243C151.491 91.4243 151.39 90.8026 151.039 90.4714C150.795 89.9916 150.18 89.6807 150.37 88.9981C150.795 89.0319 151.187 88.8968 151.485 88.6197C153.161 87.0788 154.911 85.6528 156.709 84.2539C158.642 82.7536 160.426 81.0708 162.494 79.7462C162.575 80.2125 162.345 80.6248 162.271 81.0708C162.054 82.0237 161.831 82.9766 161.615 83.9295Z" fill="#7AB800"/>
<path d="M120.823 93.6207C120.85 93.0124 120.39 92.438 120.728 91.7216C120.944 92.1744 121.215 92.5732 121.62 91.9852C121.816 91.7013 122.053 91.6202 122.364 91.6405C122.086 92.4785 121.343 92.9651 120.823 93.6207Z" fill="#49A200"/>
<path d="M151.247 90.3225C151.544 90.6875 151.835 91.0592 152.132 91.4241C152.423 91.8634 152.72 92.3027 153.011 92.7487C152.409 92.9379 151.801 92.9785 151.172 92.9717C144.238 92.965 137.298 92.965 130.364 92.9717C129.303 92.9717 128.242 92.9988 127.201 92.742C128.134 91.8093 129.195 91.0389 130.303 90.3225C130.871 90.0184 131.479 89.9644 132.108 89.9644C137.926 89.9644 143.745 89.9644 149.557 89.9644C150.152 89.9576 150.733 89.9711 151.247 90.3225Z" fill="#96C400"/>
<path d="M151.247 90.3226C144.265 90.3226 137.284 90.3226 130.296 90.3226C130.445 90.1739 130.594 90.0252 130.742 89.8766C132.222 88.8696 133.561 87.6599 135.142 86.7881C135.568 86.6597 136.007 86.6597 136.446 86.6597C140.028 86.6732 143.61 86.6664 147.192 86.6664C147.665 86.6664 148.145 86.6326 148.604 86.8016C149.192 87.5315 149.78 88.2681 150.368 88.998C150.659 89.4373 150.949 89.8766 151.247 90.3226Z" fill="#91C200"/>
<path d="M148.598 86.8015C148.267 86.9908 147.909 87.0246 147.537 87.0178C143.759 87.011 139.975 87.011 136.197 87.0178C135.818 87.0178 135.467 86.9772 135.143 86.7813C136.366 85.5107 137.893 84.6524 139.306 83.6387C140.846 82.5439 142.408 81.4829 143.962 80.4083C144.55 81.2125 145.145 82.0235 145.733 82.8277C146.618 84.0037 147.496 85.1796 148.382 86.3487C148.456 86.5042 148.524 86.6529 148.598 86.8015Z" fill="#89BE00"/>
</svg>
