<svg width="200" height="131" viewBox="0 0 200 131" fill="none" xmlns="http://www.w3.org/2000/svg">
<path d="M150.099 130.064C135.879 130.064 121.66 129.987 107.445 130.098C100.775 130.151 94.9272 128.131 89.7508 124.037C61.4859 101.678 33.2114 79.334 4.98998 56.9222C-2.07624 51.3108 -1.57842 43.7323 6.10646 38.9087C11.3022 35.6511 17.3051 34.2543 22.9939 32.176C50.5192 22.1131 78.0978 12.2049 105.672 2.27743C114.584 -0.931849 123.458 -0.782018 132.221 2.93476C132.839 3.19575 133.453 3.49541 134.033 3.83374C142.013 8.45434 142.177 15.7574 134.289 20.5085C124.705 26.2891 115.034 31.9343 105.377 37.594C100.543 40.4263 100.432 41.6153 104.802 45.2692C135.652 71.045 166.503 96.8208 197.339 122.611C198.494 123.578 199.939 124.346 199.997 126.192C200.075 128.633 198.456 130.059 195.367 130.059C180.278 130.074 165.188 130.064 150.099 130.064Z" fill="#242020"/>
</svg>
