<svg width="200" height="225" viewBox="0 0 200 225" fill="none" xmlns="http://www.w3.org/2000/svg">
<path d="M200 66.7312V225H0V0.216551C0 0.216551 67.5091 -2.69532 119.867 12.8363C119.867 12.8363 199.37 37.1137 200 66.7312Z" fill="#B61F24"/>
<path d="M174.544 186.367C173.034 156.068 176.556 120.208 174.544 92.4544C173.47 77.6888 156.855 66.9531 145.592 60.1888C114.57 41.582 73.1769 29.8828 27.272 29.1666C27.272 49.8502 27.272 70.5338 27.272 91.2109C37.7407 84.3229 53.8215 80.3841 75.6769 79.6354C85.0715 79.3099 93.6782 80.3645 104.219 80.8789C111.66 81.2239 129.792 83.5286 130.69 77.5651C131.308 73.4049 124.44 68.7434 121.588 66.8099C117.174 63.8086 111.959 62.0117 109.59 59.3619C116.074 62.4088 122.292 64.9218 129.043 68.8802C133.867 71.7122 143.398 76.8489 143.099 83.7695C142.741 91.9531 127.285 95.345 119.525 97.0052C108.359 99.388 97.285 100.052 86.8423 101.146C62.9035 103.639 45.0649 110.065 36.3735 124.31C40.2212 130.046 46.341 135.827 51.2694 140.443C52.9035 141.986 54.785 144.427 56.647 144.167C57.4022 119.186 74.9998 111.094 100.084 107.76C109.238 106.543 119.29 104.655 129.043 101.556C136.575 99.1601 148.802 94.2252 148.893 86.25C148.971 78.9453 141.901 77.4023 138.138 73.0143C138.548 73.0078 138.626 73.3463 138.971 73.4244C145.006 77.8971 158.353 82.9817 157.995 94.1145C157.65 104.713 141.517 110.644 132.76 114.798C123.281 119.284 109.876 125.306 105.872 133.822C102.422 141.152 106.562 149.59 110.006 153.678C123.633 169.831 152.454 180.573 174.544 186.367Z" fill="white"/>
</svg>
