<svg width="32" height="32" viewBox="0 0 32 32" fill="none" xmlns="http://www.w3.org/2000/svg">
<rect width="32" height="32" fill="#BA0B27"/>
<path d="M16.2691 12.2572C17.0909 12.1596 17.9126 12.074 18.7426 12.1079C20.4627 12.1782 22.1211 12.4992 23.6489 13.3344C24.3975 13.7434 25.0566 14.26 25.5254 14.9894C26.2199 16.0705 26.1477 17.3127 25.3374 18.3163C24.5324 19.3141 23.4642 19.9168 22.2717 20.2985C19.3515 21.2337 16.4571 21.1734 13.6124 19.979C13.0963 19.7623 12.6127 19.482 12.1817 19.1184C12.1453 19.0247 12.2018 18.9563 12.2496 18.8898C12.8222 18.0929 13.2436 17.2084 13.7124 16.3517C14.0611 15.7146 14.416 15.0798 14.7317 14.425C14.8154 14.2513 14.8962 14.0758 14.9292 13.8854C14.9656 13.6726 14.8671 13.5668 14.6523 13.5755C14.5432 13.5798 14.438 13.6094 14.3318 13.6314C13.9673 13.7065 13.9797 13.7099 13.9061 14.0801C13.8386 14.4183 13.676 14.7244 13.5134 15.0253C12.9451 16.0757 12.384 17.1295 11.8138 18.179C11.744 18.3072 11.7029 18.4636 11.5402 18.5191C11.1685 18.1178 10.905 17.6576 10.7739 17.1242C10.7897 16.987 10.9136 16.9444 11.0021 16.8765C11.1925 16.7311 11.3412 16.5541 11.4388 16.3364C11.4785 16.2479 11.5163 16.1513 11.4469 16.0394C11.2704 16.1221 11.136 16.2632 10.9696 16.3536C10.8863 16.3991 10.8194 16.4938 10.7031 16.4488C10.7242 15.5974 11.1217 14.9177 11.7014 14.3355C12.6083 13.4257 13.7382 12.9134 14.9541 12.5647C15.067 12.7551 15.2186 12.7623 15.3994 12.6657C15.5903 12.5633 15.7907 12.4791 15.9711 12.3567C16.06 12.2964 16.1485 12.2275 16.2691 12.2572Z" fill="black"/>
<path d="M10.703 16.4494C10.936 16.2906 11.1704 16.1347 11.4009 15.972C11.5033 15.8998 11.5382 15.918 11.5502 16.0428C11.5784 16.3293 11.4291 16.5388 11.2488 16.7249C11.1053 16.8727 10.9331 16.9923 10.7738 17.1243C10.0448 17.5405 9.2814 17.8648 8.44431 17.9896C8.10373 18.0404 7.7598 18.0542 7.41971 18.0073C6.34249 17.8595 5.81632 17.098 6.05788 16.0146C6.35827 14.6647 7.08535 13.5641 8.10373 12.648C8.89538 11.9363 9.77361 11.3699 10.8264 11.126C11.3923 10.9949 11.9668 10.9346 12.536 11.1025C12.8259 11.1882 13.1287 11.3006 13.1966 11.6431C13.2645 11.9846 13.0311 12.2008 12.7953 12.3969C12.6805 12.4921 12.5571 12.5763 12.4226 12.6767C12.3786 12.5471 12.3452 12.4381 12.3045 12.3319C12.1074 11.8191 11.7137 11.5818 11.1689 11.6249C10.7064 11.6612 10.2888 11.8205 9.91089 12.076C8.66865 12.9159 7.82486 14.0529 7.40727 15.4975C7.36565 15.6405 7.34221 15.7912 7.33121 15.94C7.26903 16.7862 7.7555 17.2544 8.60646 17.198C9.37898 17.1468 10.0611 16.8569 10.703 16.4494Z" fill="white"/>
<path d="M11.5396 18.5191C12.1261 17.4419 12.7144 16.3666 13.297 15.2869C13.4592 14.9861 13.6041 14.6761 13.7534 14.3685C13.8156 14.2408 13.8906 14.1026 13.8619 13.9629C13.8031 13.6769 13.9724 13.6285 14.1872 13.5979C14.3106 13.5802 14.4312 13.5434 14.5541 13.5204C14.9301 13.4506 15.0788 13.6137 14.9746 13.9806C14.8846 14.2958 14.7364 14.5862 14.5785 14.8703C13.7892 16.2919 13.1038 17.7719 12.182 19.1184C11.7056 19.6982 11.1531 20.1866 10.4758 20.5204C10.0582 20.7266 9.61861 20.8467 9.14697 20.7878C9.04078 20.7744 8.9322 20.7472 8.83509 20.7036C8.42994 20.5214 8.37159 20.1784 8.69255 19.8713C8.78248 19.7852 8.88341 19.7082 8.98768 19.6408C9.14075 19.5422 9.30195 19.4561 9.46841 19.3595C9.51338 19.5011 9.42536 19.5996 9.41341 19.712C9.38231 20.0029 9.55404 20.1971 9.8463 20.1885C10.1108 20.1808 10.3242 20.0545 10.5212 19.8948C10.9785 19.5241 11.2713 19.0299 11.5396 18.5191Z" fill="white"/>
<path d="M16.2691 12.2573C15.9495 12.4237 15.6592 12.6452 15.3176 12.7696C15.0656 12.8614 14.9823 12.8122 14.9541 12.5649C14.9933 12.473 15.0302 12.3807 15.0718 12.2903C15.1847 12.0478 15.3129 11.8875 15.6309 11.8239C16.249 11.7 16.8105 11.391 17.3601 11.0796C17.3893 11.0634 17.4104 11.037 17.4764 11.0801C17.286 11.4298 17.0133 11.7043 16.6991 11.9435C16.5584 12.0511 16.4126 12.153 16.2691 12.2573Z" fill="white"/>
<path d="M16.2069 16.3127C16.1743 16.3155 16.1414 16.3221 16.1082 16.3326C16.075 16.3426 16.0495 16.3586 16.0318 16.3808C16.0202 16.394 16.0083 16.4137 15.9961 16.4397C15.9845 16.4657 15.9704 16.4964 15.9538 16.5318C15.9372 16.5673 15.9203 16.6021 15.9031 16.6364C15.886 16.6707 15.8638 16.705 15.8367 16.7394C15.8589 16.7659 15.886 16.795 15.9181 16.8265C15.9502 16.8575 15.9776 16.8799 16.0002 16.8937C16.0224 16.9065 16.0536 16.9173 16.094 16.9261C16.135 16.935 16.1685 16.94 16.1945 16.9411V17H15.8525L15.7288 16.8589C15.7105 16.8788 15.6895 16.8996 15.6657 16.9211C15.6425 16.9422 15.6179 16.9604 15.5918 16.9759C15.5631 16.9925 15.534 17.0055 15.5047 17.0149C15.4759 17.0243 15.4419 17.0291 15.4026 17.0291C15.3616 17.0291 15.321 17.023 15.2806 17.0108C15.2402 16.9992 15.2034 16.9804 15.1702 16.9543C15.1381 16.9289 15.1121 16.8962 15.0921 16.8564C15.0722 16.8166 15.0623 16.769 15.0623 16.7136C15.0623 16.645 15.0802 16.583 15.1162 16.5277C15.1527 16.4718 15.2205 16.4126 15.3196 16.35C15.2748 16.2908 15.2399 16.2396 15.215 16.1965C15.1901 16.1533 15.1776 16.1049 15.1776 16.0512C15.1776 16.013 15.1851 15.9782 15.2 15.9466C15.2155 15.9145 15.2371 15.8866 15.2648 15.8628C15.2903 15.8412 15.3212 15.8243 15.3578 15.8122C15.3943 15.8 15.4314 15.7939 15.469 15.7939C15.5133 15.7939 15.552 15.8011 15.5852 15.8155C15.619 15.8293 15.6464 15.8476 15.6674 15.8703C15.6868 15.8913 15.7014 15.9156 15.7114 15.9433C15.7219 15.971 15.7271 15.9986 15.7271 16.0263C15.7271 16.0927 15.7064 16.15 15.6649 16.1981C15.6239 16.2457 15.5672 16.2886 15.4947 16.3268C15.5467 16.3971 15.5977 16.4613 15.6475 16.5194C15.6973 16.5769 15.7451 16.6337 15.7911 16.6896C15.8281 16.6303 15.8569 16.5747 15.8774 16.5227C15.8979 16.4701 15.9081 16.4239 15.9081 16.3841C15.9081 16.3664 15.8951 16.3525 15.8691 16.3426C15.8436 16.3321 15.8082 16.3221 15.7628 16.3127V16.2538H16.2069V16.3127ZM15.6201 16.0429C15.6201 15.9865 15.6076 15.9433 15.5827 15.9134C15.5578 15.883 15.5224 15.8678 15.4765 15.8678C15.4505 15.8678 15.4289 15.873 15.4117 15.8835C15.3946 15.8941 15.3799 15.9073 15.3677 15.9234C15.3567 15.9389 15.3486 15.9555 15.3437 15.9732C15.3387 15.9909 15.3362 16.0067 15.3362 16.0205C15.3362 16.0587 15.3461 16.0974 15.3661 16.1367C15.386 16.1755 15.417 16.2225 15.459 16.2778C15.516 16.2457 15.557 16.2111 15.5819 16.1741C15.6073 16.1364 15.6201 16.0927 15.6201 16.0429ZM15.6848 16.8107C15.6333 16.7454 15.5752 16.6741 15.5105 16.5966C15.4463 16.5186 15.3948 16.4527 15.3561 16.399C15.3113 16.43 15.2795 16.4665 15.2606 16.5086C15.2424 16.5501 15.2333 16.5977 15.2333 16.6514C15.2333 16.7266 15.2546 16.7892 15.2972 16.839C15.3403 16.8882 15.3979 16.9128 15.4698 16.9128C15.5102 16.9128 15.5498 16.9043 15.5885 16.8871C15.6278 16.8694 15.6599 16.8439 15.6848 16.8107ZM17.7982 17H17.3076V16.9411C17.3508 16.9383 17.3865 16.9328 17.4147 16.9245C17.4435 16.9162 17.4579 16.9059 17.4579 16.8937C17.4579 16.8888 17.4573 16.8827 17.4562 16.8755C17.4551 16.8683 17.4534 16.8619 17.4512 16.8564L17.3533 16.5924H16.9407C16.9252 16.6312 16.9125 16.6649 16.9025 16.6937C16.8931 16.7225 16.8846 16.749 16.8768 16.7734C16.8696 16.7972 16.8646 16.8166 16.8619 16.8315C16.8591 16.8464 16.8577 16.8586 16.8577 16.868C16.8577 16.8902 16.8751 16.9073 16.91 16.9195C16.9449 16.9317 16.9842 16.9389 17.0279 16.9411V17H16.5846V16.9411C16.599 16.94 16.617 16.9369 16.6386 16.9319C16.6602 16.9264 16.6779 16.9192 16.6917 16.9104C16.7138 16.8954 16.731 16.8799 16.7432 16.8639C16.7553 16.8473 16.7672 16.8246 16.7789 16.7958C16.8381 16.648 16.9034 16.482 16.9748 16.2978C17.0461 16.1135 17.1098 15.9494 17.1657 15.8055H17.2321L17.6247 16.8215C17.633 16.8431 17.6424 16.8605 17.6529 16.8738C17.6634 16.8871 17.6781 16.9001 17.6969 16.9128C17.7097 16.9206 17.7263 16.9272 17.7467 16.9328C17.7672 16.9377 17.7844 16.9405 17.7982 16.9411V17ZM17.3234 16.5186L17.1449 16.062L16.9698 16.5186H17.3234ZM18.3593 16.5991C18.382 16.619 18.3994 16.642 18.4116 16.668C18.4238 16.694 18.4299 16.7258 18.4299 16.7634C18.4299 16.8392 18.4014 16.9012 18.3444 16.9494C18.2879 16.9975 18.2146 17.0216 18.1244 17.0216C18.0768 17.0216 18.0328 17.013 17.9924 16.9958C17.9526 16.9787 17.9241 16.9629 17.9069 16.9485L17.8903 17.0025H17.8281L17.8198 16.7178H17.8771C17.8815 16.7394 17.8909 16.7645 17.9053 16.7933C17.9197 16.8221 17.9371 16.8481 17.9576 16.8713C17.9792 16.8957 18.0049 16.9162 18.0348 16.9328C18.0652 16.9494 18.0992 16.9577 18.1369 16.9577C18.19 16.9577 18.2309 16.9458 18.2597 16.922C18.2885 16.8976 18.3029 16.863 18.3029 16.8182C18.3029 16.795 18.2982 16.775 18.2888 16.7584C18.2799 16.7413 18.2666 16.7264 18.2489 16.7136C18.2307 16.7009 18.2083 16.6896 18.1817 16.6796C18.1551 16.6691 18.1255 16.6588 18.0929 16.6489C18.0669 16.6411 18.0378 16.6306 18.0057 16.6173C17.9742 16.6035 17.9471 16.5875 17.9244 16.5692C17.9 16.5498 17.8801 16.526 17.8646 16.4978C17.8491 16.4696 17.8414 16.4364 17.8414 16.3982C17.8414 16.3312 17.8663 16.2745 17.9161 16.228C17.9659 16.1815 18.0326 16.1583 18.1161 16.1583C18.1482 16.1583 18.1809 16.1625 18.2141 16.1708C18.2478 16.1791 18.2752 16.189 18.2962 16.2006L18.3153 16.1575H18.3751L18.3875 16.4206H18.3303C18.3187 16.3619 18.2935 16.3144 18.2547 16.2778C18.2166 16.2408 18.1698 16.2222 18.1145 16.2222C18.0691 16.2222 18.0334 16.2336 18.0074 16.2562C17.9814 16.2789 17.9684 16.3063 17.9684 16.3384C17.9684 16.3633 17.9725 16.3841 17.9808 16.4007C17.9897 16.4173 18.0027 16.4314 18.0198 16.443C18.0364 16.4541 18.0572 16.4646 18.0821 16.4746C18.1075 16.484 18.1388 16.4948 18.1759 16.5069C18.2124 16.5186 18.2467 16.5321 18.2788 16.5476C18.3115 16.5631 18.3383 16.5803 18.3593 16.5991ZM19.3521 16.5825C19.3521 16.64 19.343 16.6967 19.3247 16.7526C19.3064 16.808 19.2804 16.855 19.2467 16.8937C19.2085 16.938 19.1642 16.9709 19.1139 16.9925C19.0635 17.0141 19.0071 17.0249 18.9445 17.0249C18.8925 17.0249 18.843 17.0152 18.7959 16.9958C18.7489 16.9759 18.7071 16.9472 18.6706 16.9095C18.6346 16.8724 18.6059 16.8273 18.5843 16.7742C18.5632 16.7205 18.5527 16.6605 18.5527 16.5941C18.5527 16.4663 18.5898 16.3617 18.664 16.2803C18.7387 16.199 18.8363 16.1583 18.957 16.1583C19.0715 16.1583 19.1659 16.197 19.24 16.2745C19.3147 16.3514 19.3521 16.4541 19.3521 16.5825ZM19.1803 16.5841C19.1803 16.5426 19.1761 16.4989 19.1678 16.453C19.1595 16.4065 19.1471 16.3672 19.1305 16.3351C19.1128 16.3008 19.0895 16.2734 19.0607 16.2529C19.032 16.2319 18.9968 16.2214 18.9553 16.2214C18.9127 16.2214 18.8762 16.2319 18.8458 16.2529C18.8159 16.274 18.7915 16.3027 18.7727 16.3393C18.755 16.373 18.7425 16.4115 18.7354 16.4546C18.7282 16.4978 18.7246 16.5396 18.7246 16.58C18.7246 16.6331 18.7287 16.6824 18.737 16.7277C18.7459 16.7726 18.7597 16.8127 18.7785 16.8481C18.7973 16.8835 18.8208 16.9115 18.8491 16.9319C18.8778 16.9519 18.9133 16.9618 18.9553 16.9618C19.0245 16.9618 19.0793 16.9283 19.1197 16.8614C19.1601 16.7944 19.1803 16.702 19.1803 16.5841ZM19.8493 17.0216C19.7309 17.0216 19.6382 16.9823 19.5712 16.9037C19.5043 16.8251 19.4708 16.7197 19.4708 16.5875C19.4708 16.5299 19.4797 16.4762 19.4974 16.4264C19.5156 16.3761 19.5419 16.3304 19.5762 16.2895C19.6089 16.2502 19.6498 16.2186 19.6991 16.1948C19.7483 16.1705 19.802 16.1583 19.8601 16.1583C19.9403 16.1583 20.0056 16.1777 20.056 16.2164C20.1064 16.2546 20.1315 16.3069 20.1315 16.3733C20.1315 16.401 20.1249 16.4256 20.1116 16.4472C20.0983 16.4682 20.0765 16.4787 20.046 16.4787C20.0134 16.4787 19.9879 16.4704 19.9697 16.4538C19.952 16.4372 19.9431 16.4187 19.9431 16.3982C19.9431 16.3733 19.9464 16.3478 19.9531 16.3218C19.9597 16.2953 19.9636 16.2759 19.9647 16.2637C19.9547 16.2466 19.9398 16.2352 19.9199 16.2297C19.9005 16.2236 19.8795 16.2206 19.8568 16.2206C19.8302 16.2206 19.8048 16.2264 19.7804 16.238C19.7566 16.2491 19.7334 16.2698 19.7107 16.3002C19.6902 16.3279 19.6736 16.3653 19.6609 16.4123C19.6482 16.4593 19.6418 16.5155 19.6418 16.5808C19.6418 16.6837 19.6645 16.7679 19.7099 16.8332C19.7558 16.8979 19.8158 16.9303 19.89 16.9303C19.9437 16.9303 19.9885 16.9173 20.0245 16.8913C20.061 16.8653 20.0947 16.8262 20.1257 16.7742L20.1789 16.8091C20.1423 16.8744 20.0942 16.9261 20.0344 16.9643C19.9747 17.0025 19.913 17.0216 19.8493 17.0216ZM20.6404 17H20.2444V16.9452C20.2572 16.9441 20.2702 16.943 20.2834 16.9419C20.2973 16.9408 20.3092 16.9386 20.3191 16.9353C20.3346 16.9303 20.346 16.9217 20.3532 16.9095C20.3609 16.8968 20.3648 16.8805 20.3648 16.8605V16.355C20.3648 16.3373 20.3606 16.3213 20.3523 16.3069C20.3446 16.2919 20.3335 16.2795 20.3191 16.2695C20.3086 16.2629 20.2934 16.2574 20.2735 16.2529C20.2536 16.2479 20.2353 16.2449 20.2187 16.2438V16.1898L20.5076 16.1716L20.5192 16.1832V16.8506C20.5192 16.87 20.5228 16.886 20.53 16.8987C20.5377 16.9115 20.5496 16.9209 20.5657 16.927C20.5778 16.9319 20.5897 16.9361 20.6014 16.9394C20.613 16.9422 20.626 16.9441 20.6404 16.9452V17ZM20.5358 15.8487C20.5358 15.8802 20.5253 15.9079 20.5042 15.9317C20.4838 15.9549 20.4583 15.9666 20.4279 15.9666C20.3997 15.9666 20.375 15.9555 20.354 15.9333C20.3335 15.9107 20.3233 15.8849 20.3233 15.8562C20.3233 15.8257 20.3335 15.7992 20.354 15.7765C20.375 15.7538 20.3997 15.7424 20.4279 15.7424C20.4594 15.7424 20.4852 15.7532 20.5051 15.7748C20.5256 15.7958 20.5358 15.8205 20.5358 15.8487ZM21.5161 16.9851C21.4901 16.9945 21.4671 17.0019 21.4472 17.0075C21.4278 17.0136 21.4057 17.0166 21.3808 17.0166C21.3376 17.0166 21.3031 17.0066 21.2771 16.9867C21.2516 16.9662 21.2353 16.9366 21.2281 16.8979H21.2231C21.1871 16.9377 21.1484 16.9682 21.1069 16.9892C21.0659 17.0102 21.0164 17.0208 20.9583 17.0208C20.8969 17.0208 20.8462 17.0019 20.8064 16.9643C20.7671 16.9267 20.7475 16.8774 20.7475 16.8166C20.7475 16.785 20.7519 16.7568 20.7607 16.7319C20.7696 16.707 20.7829 16.6846 20.8006 16.6646C20.8144 16.648 20.8327 16.6334 20.8554 16.6207C20.8781 16.6074 20.8994 16.5969 20.9193 16.5891C20.9442 16.5797 20.9945 16.5623 21.0704 16.5368C21.1467 16.5114 21.1982 16.4914 21.2248 16.4771V16.3949C21.2248 16.3877 21.2231 16.3738 21.2198 16.3534C21.217 16.3329 21.2106 16.3135 21.2007 16.2953C21.1896 16.2748 21.1738 16.2571 21.1534 16.2421C21.1334 16.2266 21.1049 16.2189 21.0679 16.2189C21.0424 16.2189 21.0186 16.2233 20.9965 16.2322C20.9749 16.2405 20.9597 16.2493 20.9508 16.2587C20.9508 16.2698 20.9533 16.2861 20.9583 16.3077C20.9638 16.3293 20.9666 16.3492 20.9666 16.3675C20.9666 16.3868 20.9577 16.4046 20.94 16.4206C20.9229 16.4367 20.8988 16.4447 20.8678 16.4447C20.8402 16.4447 20.8197 16.435 20.8064 16.4156C20.7937 16.3957 20.7873 16.3736 20.7873 16.3492C20.7873 16.3238 20.7962 16.2994 20.8139 16.2762C20.8321 16.2529 20.8556 16.2322 20.8844 16.2139C20.9093 16.1984 20.9395 16.1854 20.9749 16.1749C21.0103 16.1638 21.0449 16.1583 21.0787 16.1583C21.1251 16.1583 21.1655 16.1616 21.1999 16.1683C21.2347 16.1743 21.2663 16.1879 21.2945 16.2089C21.3227 16.2294 21.344 16.2574 21.3584 16.2928C21.3733 16.3276 21.3808 16.3727 21.3808 16.4281C21.3808 16.5072 21.38 16.5775 21.3783 16.6389C21.3767 16.6998 21.3758 16.7665 21.3758 16.839C21.3758 16.8605 21.3794 16.8777 21.3866 16.8904C21.3944 16.9032 21.406 16.9139 21.4215 16.9228C21.4298 16.9278 21.4428 16.9306 21.4605 16.9311C21.4788 16.9317 21.4973 16.9319 21.5161 16.9319V16.9851ZM21.2264 16.5468C21.1794 16.5606 21.1382 16.5742 21.1027 16.5875C21.0673 16.6007 21.0344 16.6173 21.004 16.6373C20.9763 16.6561 20.9544 16.6785 20.9384 16.7045C20.9223 16.7299 20.9143 16.7604 20.9143 16.7958C20.9143 16.8417 20.9262 16.8755 20.95 16.8971C20.9743 16.9187 21.0051 16.9294 21.0421 16.9294C21.0814 16.9294 21.116 16.92 21.1459 16.9012C21.1758 16.8819 21.201 16.8592 21.2214 16.8332L21.2264 16.5468ZM22.4939 16.9851L22.2084 17.0033L22.1959 16.9917V16.9153L22.1893 16.9137C22.1605 16.9458 22.1248 16.9721 22.0822 16.9925C22.0402 17.013 21.9967 17.0232 21.9519 17.0232C21.9054 17.0232 21.8603 17.013 21.8166 16.9925C21.7734 16.9715 21.7358 16.9422 21.7037 16.9045C21.6711 16.8664 21.6451 16.8204 21.6257 16.7667C21.6069 16.7131 21.5975 16.6539 21.5975 16.5891C21.5975 16.5299 21.6077 16.4737 21.6282 16.4206C21.6486 16.3675 21.6769 16.321 21.7128 16.2812C21.7466 16.2441 21.7878 16.2145 21.8365 16.1923C21.8858 16.1702 21.9359 16.1591 21.9868 16.1591C22.025 16.1591 22.0623 16.1641 22.0988 16.1741C22.1359 16.1835 22.1677 16.1957 22.1943 16.2106V15.9259C22.1943 15.9026 22.1904 15.8816 22.1827 15.8628C22.1749 15.8434 22.1641 15.8288 22.1503 15.8188C22.1348 15.8083 22.1138 15.8008 22.0872 15.7964C22.0612 15.7914 22.033 15.7878 22.0025 15.7856V15.7341L22.3371 15.715L22.3495 15.7275V16.8315C22.3495 16.8509 22.3531 16.8675 22.3603 16.8813C22.3681 16.8946 22.3791 16.9059 22.3935 16.9153C22.404 16.922 22.4192 16.9261 22.4392 16.9278C22.4591 16.9294 22.4773 16.9306 22.4939 16.9311V16.9851ZM22.1943 16.8415V16.3625C22.1899 16.3481 22.1827 16.3326 22.1727 16.316C22.1627 16.2994 22.1503 16.2842 22.1354 16.2704C22.1193 16.2565 22.1005 16.2452 22.0789 16.2363C22.0573 16.2269 22.0321 16.2222 22.0034 16.2222C21.9702 16.2222 21.9395 16.2308 21.9112 16.2479C21.8836 16.2651 21.8589 16.2897 21.8374 16.3218C21.8169 16.3528 21.8006 16.3924 21.7884 16.4405C21.7768 16.4881 21.7709 16.541 21.7709 16.5991C21.7709 16.6456 21.7754 16.6879 21.7842 16.7261C21.7931 16.7637 21.808 16.7988 21.8291 16.8315C21.8484 16.8625 21.873 16.8874 21.9029 16.9062C21.9334 16.925 21.9693 16.9344 22.0108 16.9344C22.0551 16.9344 22.0916 16.9247 22.1204 16.9054C22.1497 16.886 22.1744 16.8647 22.1943 16.8415ZM23.3713 16.5825C23.3713 16.64 23.3622 16.6967 23.3439 16.7526C23.3257 16.808 23.2997 16.855 23.2659 16.8937C23.2277 16.938 23.1835 16.9709 23.1331 16.9925C23.0827 17.0141 23.0263 17.0249 22.9638 17.0249C22.9118 17.0249 22.8622 17.0152 22.8152 16.9958C22.7681 16.9759 22.7264 16.9472 22.6898 16.9095C22.6539 16.8724 22.6251 16.8273 22.6035 16.7742C22.5825 16.7205 22.572 16.6605 22.572 16.5941C22.572 16.4663 22.609 16.3617 22.6832 16.2803C22.7579 16.199 22.8556 16.1583 22.9762 16.1583C23.0908 16.1583 23.1851 16.197 23.2593 16.2745C23.334 16.3514 23.3713 16.4541 23.3713 16.5825ZM23.1995 16.5841C23.1995 16.5426 23.1954 16.4989 23.1871 16.453C23.1788 16.4065 23.1663 16.3672 23.1497 16.3351C23.132 16.3008 23.1088 16.2734 23.08 16.2529C23.0512 16.2319 23.0161 16.2214 22.9746 16.2214C22.932 16.2214 22.8954 16.2319 22.865 16.2529C22.8351 16.274 22.8108 16.3027 22.7919 16.3393C22.7742 16.373 22.7618 16.4115 22.7546 16.4546C22.7474 16.4978 22.7438 16.5396 22.7438 16.58C22.7438 16.6331 22.7479 16.6824 22.7563 16.7277C22.7651 16.7726 22.7789 16.8127 22.7978 16.8481C22.8166 16.8835 22.8401 16.9115 22.8683 16.9319C22.8971 16.9519 22.9325 16.9618 22.9746 16.9618C23.0437 16.9618 23.0985 16.9283 23.1389 16.8614C23.1793 16.7944 23.1995 16.702 23.1995 16.5841ZM24.0304 16.5991C24.0531 16.619 24.0705 16.642 24.0827 16.668C24.0949 16.694 24.101 16.7258 24.101 16.7634C24.101 16.8392 24.0725 16.9012 24.0155 16.9494C23.959 16.9975 23.8857 17.0216 23.7955 17.0216C23.7479 17.0216 23.7039 17.013 23.6635 16.9958C23.6237 16.9787 23.5952 16.9629 23.578 16.9485L23.5614 17.0025H23.4992L23.4909 16.7178H23.5481C23.5526 16.7394 23.562 16.7645 23.5764 16.7933C23.5908 16.8221 23.6082 16.8481 23.6287 16.8713C23.6502 16.8957 23.676 16.9162 23.7059 16.9328C23.7363 16.9494 23.7703 16.9577 23.808 16.9577C23.8611 16.9577 23.902 16.9458 23.9308 16.922C23.9596 16.8976 23.974 16.863 23.974 16.8182C23.974 16.795 23.9693 16.775 23.9599 16.7584C23.951 16.7413 23.9377 16.7264 23.92 16.7136C23.9018 16.7009 23.8793 16.6896 23.8528 16.6796C23.8262 16.6691 23.7966 16.6588 23.764 16.6489C23.738 16.6411 23.7089 16.6306 23.6768 16.6173C23.6453 16.6035 23.6181 16.5875 23.5955 16.5692C23.5711 16.5498 23.5512 16.526 23.5357 16.4978C23.5202 16.4696 23.5125 16.4364 23.5125 16.3982C23.5125 16.3312 23.5374 16.2745 23.5872 16.228C23.637 16.1815 23.7036 16.1583 23.7872 16.1583C23.8193 16.1583 23.852 16.1625 23.8852 16.1708C23.9189 16.1791 23.9463 16.189 23.9673 16.2006L23.9864 16.1575H24.0462L24.0586 16.4206H24.0014C23.9897 16.3619 23.9646 16.3144 23.9258 16.2778C23.8876 16.2408 23.8409 16.2222 23.7855 16.2222C23.7402 16.2222 23.7045 16.2336 23.6785 16.2562C23.6525 16.2789 23.6395 16.3063 23.6395 16.3384C23.6395 16.3633 23.6436 16.3841 23.6519 16.4007C23.6608 16.4173 23.6738 16.4314 23.6909 16.443C23.7075 16.4541 23.7283 16.4646 23.7532 16.4746C23.7786 16.484 23.8099 16.4948 23.847 16.5069C23.8835 16.5186 23.9178 16.5321 23.9499 16.5476C23.9826 16.5631 24.0094 16.5803 24.0304 16.5991Z" fill="white"/>
</svg>
