<svg width="200" height="188" viewBox="0 0 200 188" fill="none" xmlns="http://www.w3.org/2000/svg">
<path d="M146.667 172.299L158.506 186.437H180C172.759 179.655 162.989 168.506 157.012 162.873L146.667 172.299Z" fill="url(#paint0_linear_118_606)"/>
<path d="M168.851 152.528L157.126 162.988C163.103 168.62 172.874 179.655 180.115 186.551H200L168.851 152.528Z" fill="url(#paint1_linear_118_606)"/>
<path d="M104.713 6.32175C16.7818 10.8045 -10.2297 107.701 43.9082 149.425C98.046 191.149 140 146.551 140 146.551L121.035 126.437H98.9656L125.402 152.873C116.552 158.506 105.862 161.724 93.3334 161.724C61.3794 161.724 35.4024 128.046 35.4024 86.5516C35.4024 45.0574 77.3564 11.3792 109.31 11.3792C127.356 11.3792 147.241 14.0229 169.31 28.7355C155.287 14.8275 134.828 4.71256 104.713 6.32175Z" fill="url(#paint2_linear_118_606)"/>
<path d="M104.023 0C46.5517 0 0 38.7356 0 86.5516C0 134.368 27.2413 173.103 84.5976 173.103C112.759 173.103 130.919 163.793 142.644 148.621C145.862 144.483 148.506 139.885 150.804 134.942L145.632 129.885L141.954 126.322H120.919L139.885 146.437C139.885 146.437 97.9309 191.034 43.7931 149.31C-10.3448 107.701 16.7816 10.8046 104.713 6.32183C134.827 4.82758 155.402 14.8276 169.31 28.7356C169.77 29.0804 170.23 29.3103 170.689 29.6551C157.126 11.4942 135.287 0 104.023 0Z" fill="url(#paint3_linear_118_606)"/>
<path d="M115.977 14.1379C87.3564 14.1379 62.2989 29.4253 47.4714 52.7586C50.5748 48.8505 54.0231 45.2873 57.8162 42.1839C65.7472 31.6092 78.2759 24.1379 96.8966 24.1379C146.322 24.1379 181.724 59.5402 181.724 103.218C181.724 146.896 141.724 182.299 92.2989 182.299C74.2529 182.299 57.3564 177.586 43.3334 169.31C41.7242 168.85 40.1151 168.276 38.5059 167.701C54.138 180.23 76.207 187.816 105.402 187.816C150.92 187.816 198.276 148.965 198.276 100.919C198.276 52.9885 161.379 14.1379 115.977 14.1379Z" fill="url(#paint4_linear_118_606)"/>
<path d="M181.724 103.218C181.724 59.5402 146.322 24.1379 96.8964 24.1379C78.2757 24.1379 65.632 31.6092 57.8159 42.1839C68.8504 33.2184 82.5286 27.931 97.4711 27.931C133.448 27.931 162.643 58.7356 162.643 96.6666C162.643 141.494 133.448 173.793 97.4711 175.747C76.8964 176.896 58.7355 174.368 43.2183 169.425C57.2412 177.586 74.1378 182.414 92.1837 182.414C141.724 182.299 181.724 146.896 181.724 103.218Z" fill="url(#paint5_linear_118_606)"/>
<defs>
<linearGradient id="paint0_linear_118_606" x1="148.8" y1="176.058" x2="170.977" y2="174.627" gradientUnits="userSpaceOnUse">
<stop stop-color="#D21E25"/>
<stop offset="1" stop-color="#730E11"/>
</linearGradient>
<linearGradient id="paint1_linear_118_606" x1="165.571" y1="158.73" x2="185.482" y2="183.53" gradientUnits="userSpaceOnUse">
<stop stop-color="#D71F26"/>
<stop offset="1" stop-color="#C80000"/>
</linearGradient>
<linearGradient id="paint2_linear_118_606" x1="86.7696" y1="157.875" x2="96.0625" y2="0.693134" gradientUnits="userSpaceOnUse">
<stop stop-color="#1A3966"/>
<stop offset="0.9968" stop-color="#086DB5"/>
</linearGradient>
<linearGradient id="paint3_linear_118_606" x1="69.8129" y1="163.184" x2="94.7708" y2="-10.1934" gradientUnits="userSpaceOnUse">
<stop stop-color="#005EBD"/>
<stop offset="0.5441" stop-color="#3E8ED3"/>
<stop offset="0.7325" stop-color="#85C5EC"/>
</linearGradient>
<linearGradient id="paint4_linear_118_606" x1="125.24" y1="27.147" x2="115.185" y2="186.695" gradientUnits="userSpaceOnUse">
<stop stop-color="#5C0A0C"/>
<stop offset="1" stop-color="#D71F26"/>
</linearGradient>
<linearGradient id="paint5_linear_118_606" x1="116.325" y1="29.7766" x2="111.298" y2="170.804" gradientUnits="userSpaceOnUse">
<stop offset="0.000621726" stop-color="#D71F26"/>
<stop offset="1" stop-color="#F49578"/>
</linearGradient>
</defs>
</svg>
