<svg width="200" height="196" viewBox="0 0 200 196" fill="none" xmlns="http://www.w3.org/2000/svg">
<path d="M147.572 4.92554C154.87 1.96424 162.372 -0.0119589 170.319 5.4469e-05C189.433 0.0360946 201.476 13.0406 199.854 32.2019C198.863 43.939 195.133 55.1474 192.574 66.5662C186.82 92.2568 180.663 117.857 174.668 143.494C171.19 147.206 171.202 143.085 170.806 141.518C170.001 138.37 171.112 134.97 169.899 131.811C169.118 129.336 169.731 126.603 168.499 124.212C166.577 116.271 165.172 108.192 161.321 100.816C159.033 96.4374 156.738 92.1066 153.471 88.3524C151.855 86.4903 150.191 84.6102 150.533 81.8351C152.996 73.642 150.726 65.539 149.8 57.484C148.263 44.0711 146.094 30.7303 144.725 17.2933C144.292 12.9565 142.929 8.18717 147.572 4.92554Z" fill="#D0D1D3"/>
<path d="M160.138 184.718C152.672 194.539 142.412 197.446 129.654 193.301C127.348 192.55 125.101 191.619 122.831 190.772C102.57 175.78 84.9103 157.778 65.749 141.512C64.5116 140.46 63.1841 139.523 61.8927 138.532C61.0578 135.253 63.6467 134.82 65.7009 134.238C69.2088 133.24 72.7288 132.243 76.3808 131.895C84.2196 131.973 91.4636 129.618 98.5034 126.453C101.086 125.36 103.537 123.858 106.456 123.732C108.493 123.762 109.808 124.939 111.045 126.429C124.831 143.001 140.016 158.312 154.203 174.512C156.792 177.468 160.522 179.954 160.138 184.718Z" fill="#D0D1D3"/>
<path d="M2.67233 80.5377C-2.75772 68.5724 0.191561 56.9495 10.5711 48.7143C18.1996 42.6656 27.3178 40.1848 36.3698 37.4638C54.6662 31.9556 72.9506 26.4175 91.2349 20.8913C96.8332 19.7741 94.4905 23.5403 94.3704 25.955C93.079 29.583 91.9137 33.2651 90.1597 36.7129C89.8173 37.8722 89.6131 39.0676 89.0485 40.1548C88.4658 41.278 87.709 42.3172 86.5077 42.7437C62.6851 51.105 41.6377 65.0525 19.1366 76.0808C15.9952 77.6185 12.9678 79.4085 9.66411 80.5918C7.36355 81.4087 4.9849 82.4959 2.67233 80.5377Z" fill="#00B1E7"/>
<path d="M2.67236 80.5378C8.42677 80.1774 13.1901 77.1741 18.0975 74.6393C38.3701 64.1756 58.6847 53.778 78.747 42.9239C81.7924 41.2721 85.865 43.2063 87.9613 39.5842C90.8145 42.3773 88.7362 45.3927 88.0514 48.1318C87.4207 50.6425 86.4957 53.1714 85.2883 55.526C81.0596 58.4512 76.038 59.7367 71.485 62.0733C54.0956 70.9932 36.9705 80.4177 19.413 89.0133C14.956 91.1937 10.5712 92.9476 6.78093 87.878C4.9489 85.6855 3.10484 83.5051 2.67236 80.5378Z" fill="#0092CF"/>
<path d="M147.572 4.92566C144.454 13.275 147.506 21.5101 148.329 29.7032C149.878 45.0924 152.786 60.3253 153.801 75.7866C153.981 78.5376 153.807 81.1085 151.332 82.9165C146.4 82.9886 143.715 79.5828 140.97 76.2431C138.55 55.4539 135.913 34.6948 133.696 13.8816C133.492 11.9715 133.877 10.1995 135.228 8.7339C139.012 6.4033 143.271 5.58639 147.572 4.92566Z" fill="#B8B9BC"/>
<path d="M37.2887 116.482C33.7147 113.911 29.9726 111.532 27.4678 107.748C43.7939 102.774 58.2701 93.8966 73.2567 86.0879C77.2332 84.0156 81.1616 81.667 85.9609 82.2136C88.4657 83.1867 88.5618 85.6795 89.4207 87.6917C89.9433 89.8781 90.586 92.0526 90.2316 94.3471C89.4568 96.7498 87.3665 97.7469 85.3482 98.708C73.515 104.348 61.9161 110.433 50.3953 116.68C46.0344 119.041 41.5955 120.272 37.2887 116.482Z" fill="#004C91"/>
<path d="M85.7328 82.9764C69.2925 88.7909 54.7984 98.5938 39.0308 105.796C35.1925 107.55 31.6306 108.871 27.4679 107.748C23.8699 105.171 20.332 102.54 17.4668 99.1164C28.9456 99.3687 37.7694 92.527 47.1939 87.6136C57.207 82.3878 67.2803 77.2821 77.3775 72.2425C80.0204 70.921 82.7595 68.9388 86.0391 70.7708C88.2976 74.9034 88.646 78.982 85.7328 82.9764Z" fill="#0063A6"/>
<path d="M135.228 8.73363C137.709 31.3909 140.195 54.0481 142.676 76.7053C140.339 78.5974 138.543 76.453 136.525 75.8884C135.258 75.3598 134.123 74.645 133.131 73.6839C129.497 71.5335 128.819 67.8454 128.458 64.1693C127.215 51.3511 124.968 38.6529 123.725 25.8467C123.232 20.7891 121.358 15.1548 126.554 11.0522C129.281 9.6947 132.062 8.49937 135.228 8.73363Z" fill="#9FA0A4"/>
<path d="M6.7749 87.8839C10.8715 90.9953 14.7698 89.4336 18.6742 87.3973C37.439 77.6004 56.228 67.8576 74.9568 58.0006C77.9602 56.4208 80.9755 55.4177 84.3753 55.7061C86.2494 57.2498 86.1172 59.268 85.7208 61.3523C84.976 63.8992 83.186 65.4849 80.8974 66.6562C62.0364 76.321 43.1334 85.9077 24.3805 95.7887C21.4492 97.3324 18.4159 98.8521 15.1122 96.5936C11.6223 94.3711 8.8352 91.4699 6.7749 87.8839Z" fill="#007BBB"/>
<path d="M37.2886 116.482C40.4841 117.197 43.6196 118.074 46.8572 116.368C61.021 108.907 75.2208 101.519 89.4086 94.1069C95.5234 98.0473 96.3643 105.514 90.4357 108.811C79.1251 115.088 67.8386 121.473 56.0595 126.879C52.3413 128.585 49.2959 126.891 46.2866 124.999C43.4514 121.984 39.493 120.158 37.2886 116.482Z" fill="#003F75"/>
<path d="M46.2808 124.999C54.9905 128.375 61.0632 122.02 67.9349 118.95C73.5571 116.44 78.801 113.094 84.3031 110.295C94.6887 105.009 94.8328 104.703 89.4088 94.1067C88.2435 92.1966 88.0753 90.0822 88.1774 87.9138C88.5198 83.0004 87.9852 77.9728 90.0995 73.2996C90.6101 72.783 91.2228 72.6208 91.9316 72.801C95.7639 78.0088 95.6197 84.5981 98.0284 90.3045C98.8573 97.4164 96.0582 104.474 97.9983 111.712C98.7191 114.409 96.0762 116.542 93.6975 117.977C84.6815 123.419 75.2991 128.147 65.7364 132.556C60.5226 134.958 56.1798 133.835 52.2094 130.075C50.2692 128.351 47.5181 127.558 46.2808 124.999Z" fill="#003662"/>
<path d="M166.054 176.789C165.712 176.939 165.357 177.059 164.997 177.143C154.383 168.301 145.715 157.573 136.471 147.428C130.669 141.061 124.776 134.754 119.208 128.165C117.196 125.786 115.093 123.557 114.655 120.302C114.625 119.683 114.721 119.082 114.919 118.494C116.469 115.941 118.613 114.373 121.719 114.403C128.741 120.434 134.014 128.068 140.291 134.79C148.136 143.193 155.68 151.891 163.525 160.3C165.489 162.403 167.382 164.589 168.222 167.448C168.307 169.37 167.646 171.016 166.36 172.422C166.252 173.875 166.156 175.335 166.054 176.789Z" fill="#A5A6AA"/>
<path d="M52.2153 130.075C58.2521 133.979 63.8323 131.871 69.4125 128.868C76.9929 124.789 84.5914 120.759 92.2559 116.842C96.1542 114.854 98.0043 112.229 95.8299 107.958C92.7665 101.964 97.734 96.4615 96.797 90.611C98.3106 89.776 99.2717 90.8632 99.7763 91.8603C103.554 99.3327 108.882 106.09 110.456 114.602C110.438 115.232 110.3 115.833 110.072 116.422C106.954 121.263 101.386 122.843 97.1033 126.141C90.8864 130.027 83.8706 131.739 76.8968 133.583C72.602 134.484 68.3193 135.451 64.0065 136.256C62.5949 136.52 61.838 137.061 61.8861 138.52C58.6365 135.745 54.636 133.811 52.2153 130.075Z" fill="#012C51"/>
<path d="M171.31 130.97C172.884 134.207 172.289 137.733 172.644 141.133C172.77 142.364 172.103 144.341 174.674 143.494C174.097 148.677 173.389 153.825 171.238 158.649C170.295 158.06 169.701 157.141 169.713 156.114C169.809 148.353 164.943 143.241 160.09 138.208C151.542 129.342 143.529 120.002 135.336 110.823C133.967 109.286 132.633 107.718 132.159 105.628C131.93 103.315 133.258 101.567 134.285 99.6989C135.138 98.3955 136.123 97.2482 137.745 96.9058C140.682 96.6415 142.106 98.876 143.686 100.672C151.53 109.574 159.513 118.35 167.856 126.783C170.103 129.054 169.628 131.871 170.349 134.502C170.409 133.252 169.803 131.793 171.31 130.97Z" fill="#6D6E71"/>
<path d="M132.681 105.159C144.051 117.947 155.152 130.994 166.925 143.398C171.406 148.113 170.685 153.333 171.226 158.648C169.952 163.364 171.051 168.92 166.348 172.422C166.721 170.656 167.099 168.884 167.471 167.118C168.871 158.51 162.876 153.573 157.879 148.293C146.568 136.34 135.75 123.954 124.992 111.502C126.145 107.676 128.548 105.363 132.681 105.159Z" fill="#828387"/>
<path d="M126.548 11.0583C123.347 19.6359 126.392 28.1233 127.077 36.6108C127.785 45.3685 129.305 54.0542 130.224 62.8C130.663 66.9566 131.389 70.7648 135.132 73.2816C132.092 75.5702 129.221 73.9363 126.314 72.9152C125.335 72.4587 124.47 71.834 123.629 71.1673C120.734 69.3292 119.947 66.434 119.532 63.2745C117.892 50.8587 116.313 38.4308 114.931 25.991C114.457 21.6962 113.189 16.8308 117.904 13.6112C120.535 11.9293 123.485 11.3046 126.548 11.0583Z" fill="#87888C"/>
<path d="M15.1064 96.5996C23.3116 96.2572 29.6727 91.2537 36.4001 87.6136C50.8102 79.8049 65.6347 72.8432 80.1228 65.2207C81.7086 64.3858 83.0301 63.0463 84.4777 61.941C86.8623 64.8182 86.9164 67.6894 84.4837 70.5667C66.6258 79.7028 48.7139 88.7369 30.9461 98.0412C26.4351 100.402 22.2544 102.3 17.4671 99.1224C16.1216 98.7981 15.5509 97.7589 15.1064 96.5996Z" fill="#0071B2"/>
<path d="M104.264 17.3293C107.111 16.3442 109.826 14.9146 112.937 14.8666C110.475 24.5434 113.4 33.9979 114.211 43.5305C114.631 48.456 115.802 53.3094 116.091 58.2469C116.343 62.5356 117.088 66.422 121.136 68.8667C121.911 69.3352 121.965 70.2002 121.485 71.0231C118.824 72.9512 115.881 72.3145 112.967 72.0082C106.877 71.0591 104.462 67.0166 103.921 61.3403C102.846 50.1378 101.164 39.0075 99.9328 27.829C99.4763 23.6423 99.6685 19.5278 104.264 17.3293Z" fill="#696A6C"/>
<path d="M104.264 17.3295C102.245 19.8282 101.392 22.6514 101.789 25.871C103.279 37.9564 104.936 50.0239 106.102 62.1393C106.558 66.8486 108.516 69.5156 113.009 70.5007C104.047 75.2039 97.4941 72.1765 96.0886 62.6679C94.7731 53.778 94.3286 44.744 92.0881 36.0043C91.1691 32.4183 93.83 29.2527 92.8209 25.7568C92.2143 24.1591 96.0705 21.0896 91.2231 20.8914C95.578 19.7021 99.9208 18.5188 104.264 17.3295Z" fill="#545456"/>
<path d="M121.623 70.5486C115.322 69.4613 114.577 64.8963 114.078 59.5443C112.967 47.585 111.628 35.6257 109.73 23.7685C109.081 19.714 109.676 17.053 112.937 14.8666C114.505 14.1157 116.073 13.3649 117.893 13.5991C114.577 21.546 117.779 29.4448 118.283 37.3135C118.86 46.2695 120.728 55.1414 121.461 64.0974C121.719 67.2689 123.437 68.8246 125.293 70.6687C124.037 71.6658 122.812 71.6718 121.623 70.5486Z" fill="#7A7A7E"/>
<path d="M115.31 120.02C118.566 126.261 123.822 130.958 128.465 135.992C139.842 148.329 150.395 161.442 162.691 172.921C163.934 174.08 164.811 175.407 164.992 177.137C164.235 180.213 162.823 182.868 160.138 184.712C151.404 172.5 140.472 162.199 130.615 150.96C123.329 142.653 115.268 135.031 108.805 125.99C108.403 125.426 107.381 125.3 106.643 124.969C108.12 120.849 110.859 118.939 115.31 120.02Z" fill="#BBBCBF"/>
<path d="M137.691 97.807C136.898 98.672 136.099 99.5429 135.306 100.408C130.879 99.7892 127.69 101.747 124.753 104.919C122.987 106.823 121.149 109.76 117.623 107.706C117.262 106.379 117.779 105.231 118.584 104.306C125.906 95.9089 131.288 86.3222 135.895 76.255C136.243 75.4982 137.024 75.0897 137.595 74.5071C139.289 75.2399 140.977 75.9787 142.671 76.7115C145.56 78.7838 148.449 80.8501 151.332 82.9224C162.306 94.3111 167.7 108.253 169.983 123.624C170.638 125.149 170.95 126.699 168.523 126.267C167.01 126.002 166.205 124.477 166.031 123.029C164.493 110.439 152.738 105.345 146.311 96.3474C143.548 92.4851 140.568 97.0502 137.691 97.807Z" fill="#404042"/>
<path d="M137.691 97.8069C143.782 90.1844 144.424 90.2505 150.047 97.6447C152.383 100.72 155.008 103.669 157.927 106.18C163.213 110.733 167.238 115.767 167.574 123.113C167.628 124.308 168.319 127.522 169.977 123.624C171.34 125.906 171.268 128.447 171.298 130.976C171.154 133.012 171.016 135.054 170.872 137.091C170.608 130.051 164.943 126.453 160.829 122.212C153.032 114.157 146.539 104.859 137.691 97.8069Z" fill="#525355"/>
<path d="M115.31 120.02C112.06 121.041 109.381 123.059 106.648 124.975C104.24 125.852 101.831 126.729 99.4224 127.606C96.4611 128.789 96.2809 127.144 96.6773 124.909C100.852 122.068 105.027 119.227 109.201 116.386C112.397 114.403 114.145 116.043 115.424 118.86C115.394 119.251 115.358 119.635 115.31 120.02Z" fill="#747578"/>
<path d="M96.6764 124.915C97.8777 125.522 97.271 127.966 99.4214 127.606C92.4897 131.763 84.8612 133.306 76.9023 133.595C83.4917 130.699 90.087 127.804 96.6764 124.915Z" fill="#8E9095"/>
<path d="M121.622 70.5485C122.848 70.5905 124.067 70.6266 125.293 70.6686C125.737 71.029 126.188 71.3954 126.632 71.7558C125.977 72.5968 125.136 73.2815 124.097 73.3896C114.486 74.3747 104.816 74.2546 95.175 74.8072C93.9436 74.8793 92.8624 74.0264 91.8893 73.2275C91.4809 73.1674 91.0784 73.1013 90.67 73.0172C85.5042 66.2958 86.0148 58.5351 86.8257 50.8285C87.3543 45.8069 89.5407 40.9836 88.6397 35.7818C90.0333 32.4361 91.4268 29.0963 92.8264 25.7506C94.7125 31.0065 94.1779 36.6347 95.4033 42.0588C97.0491 49.3689 97.2233 57.0094 98.1663 64.4877C98.6589 68.3921 100.503 70.975 105.014 70.6326C107.669 70.4284 110.348 70.5305 113.015 70.5004C115.886 70.5185 118.751 70.5365 121.622 70.5485Z" fill="#424141"/>
<path d="M88.6401 35.7939C89.9616 37.4037 89.6973 39.3559 89.3309 41.0618C87.0063 51.8498 88.6521 62.4396 90.6763 73.0294C90.6403 78.1231 91.259 83.3309 88.1836 87.92C87.3667 86.2741 86.5497 84.6223 85.7388 82.9765C85.1622 78.8559 86.8441 74.5071 84.4955 70.5667C84.4955 67.6895 84.4895 64.8123 84.4895 61.9411C84.4534 59.8627 84.4174 57.7904 84.3813 55.7121C84.4294 50.0839 88.3037 45.3085 87.9673 39.5902C88.1836 38.3228 88.4118 37.0553 88.6401 35.7939Z" fill="#003F75"/>
<path d="M125.497 111.496C131.438 114.019 134.207 119.888 138.382 124.188C147.914 134.015 156.354 144.9 165.856 154.756C169.959 159.009 170.187 162.565 167.484 167.112C153.146 151.351 138.784 135.601 124.494 119.792C123.299 118.47 122.584 116.716 121.641 115.16C121.142 112.067 123.125 111.574 125.497 111.496Z" fill="#949599"/>
<path d="M125.498 111.496C124.212 112.715 122.927 113.935 121.641 115.16C119.569 116.398 117.503 117.629 115.43 118.866C113.118 118.632 111.887 115.701 109.208 116.392C109.256 115.995 109.292 115.599 109.316 115.202C112.367 112.878 115.845 111.058 118.103 107.79C121.882 107.021 123.798 103.802 126.062 101.291C129.102 97.921 131.871 97.014 135.319 100.408C135.271 102.45 133.463 103.519 132.7 105.165C130.291 107.273 127.894 109.388 125.498 111.496Z" fill="#525355"/>
</svg>
