<svg width="20" height="10" viewBox="0 0 20 10" fill="none" xmlns="http://www.w3.org/2000/svg">
<path d="M10.2691 1.25716C11.0909 1.15958 11.9126 1.07396 12.7426 1.10792C14.4627 1.17823 16.1211 1.4992 17.6489 2.33438C18.3975 2.74335 19.0566 3.25996 19.5254 3.98943C20.2199 5.07047 20.1477 6.31271 19.3374 7.31627C18.5324 8.31408 17.4642 8.91679 16.2717 9.2985C13.3515 10.2337 10.4571 10.1734 7.61238 8.97897C7.09625 8.76228 6.61265 8.48198 6.18167 8.11844C6.14531 8.02469 6.20176 7.95628 6.24959 7.88979C6.82216 7.09288 7.24358 6.20844 7.71235 5.35173C8.06106 4.71459 8.41598 4.07983 8.73169 3.42499C8.8154 3.25135 8.89624 3.0758 8.92924 2.88542C8.9656 2.67256 8.86706 2.56685 8.65228 2.57546C8.54322 2.57976 8.43799 2.60942 8.3318 2.63142C7.9673 2.70652 7.97974 2.70987 7.90608 3.0801C7.83863 3.41829 7.676 3.72443 7.51336 4.0253C6.9451 5.07573 6.38401 6.12951 5.81383 7.17898C5.74399 7.30718 5.70285 7.4636 5.54022 7.51908C5.16855 7.11776 4.90498 6.6576 4.77392 6.12425C4.7897 5.98697 4.91359 5.94439 5.00209 5.87647C5.19246 5.73105 5.34123 5.55407 5.43881 5.33643C5.47851 5.24793 5.5163 5.15131 5.44694 5.03938C5.27043 5.12213 5.13602 5.26324 4.96956 5.35365C4.88633 5.39909 4.81936 5.4938 4.70312 5.44884C4.72417 4.59739 5.12167 3.91767 5.70142 3.33554C6.60835 2.42574 7.73818 1.91344 8.95412 1.56473C9.067 1.75511 9.21864 1.76228 9.39945 1.66566C9.59031 1.56329 9.79073 1.47911 9.97106 1.35665C10.06 1.29638 10.1485 1.2275 10.2691 1.25716Z" fill="black"/>
<path d="M4.70302 5.4494C4.93597 5.29059 5.17035 5.13465 5.40091 4.97202C5.50328 4.89979 5.5382 4.91797 5.55015 5.04281C5.57838 5.32934 5.42913 5.53885 5.2488 5.72492C5.1053 5.87273 4.9331 5.99231 4.77381 6.12434C4.04482 6.54049 3.2814 6.8648 2.44431 6.98965C2.10373 7.04035 1.7598 7.05422 1.41971 7.00735C0.342488 6.85954 -0.183684 6.09803 0.0578769 5.01459C0.358273 3.66472 1.08535 2.56406 2.10373 1.64805C2.89538 0.93628 3.77361 0.369929 4.82643 0.125977C5.3923 -0.0050881 5.96679 -0.0653597 6.53601 0.102537C6.82588 0.188159 7.12867 0.30057 7.19659 0.64306C7.26452 0.984593 7.03109 1.2008 6.79527 1.39692C6.68047 1.49211 6.55706 1.5763 6.42264 1.67675C6.37864 1.54712 6.34515 1.43806 6.30449 1.33187C6.10742 0.819088 5.71375 0.581832 5.16892 0.624883C4.70637 0.661236 4.28878 0.820523 3.91089 1.07596C2.66865 1.91592 1.82486 3.05293 1.40727 4.49751C1.36565 4.64053 1.34221 4.79121 1.33121 4.93997C1.26903 5.78615 1.7555 6.25444 2.60646 6.198C3.37898 6.14682 4.06109 5.85694 4.70302 5.4494Z" fill="white"/>
<path d="M5.53962 7.51907C6.12606 6.44186 6.71442 5.36655 7.29703 4.28694C7.45919 3.98607 7.60413 3.6761 7.75337 3.36853C7.81555 3.24082 7.89065 3.10258 7.86195 2.9629C7.80311 2.67686 7.97245 2.62855 8.18722 2.59793C8.31063 2.58023 8.43117 2.5434 8.5541 2.52044C8.93008 2.4506 9.07884 2.61372 8.97456 2.9806C8.88464 3.29583 8.73635 3.58618 8.5785 3.87031C7.78924 5.29193 7.10378 6.77191 6.18203 8.11843C5.7056 8.69818 5.15312 9.18656 4.47579 9.52044C4.05821 9.7266 3.61861 9.84667 3.14697 9.78783C3.04078 9.77444 2.9322 9.74717 2.83509 9.70364C2.42994 9.5214 2.37159 9.17843 2.69255 8.87133C2.78248 8.78523 2.88341 8.70822 2.98768 8.64078C3.14075 8.54224 3.30195 8.45614 3.46841 8.35951C3.51338 8.5011 3.42536 8.59964 3.41341 8.71205C3.38231 9.00288 3.55404 9.19708 3.8463 9.18847C4.11082 9.18082 4.32416 9.05454 4.52124 8.89477C4.97853 8.52406 5.27127 8.02994 5.53962 7.51907Z" fill="white"/>
<path d="M10.2691 1.25728C9.94952 1.42374 9.65917 1.64521 9.31764 1.76958C9.06555 1.86142 8.98232 1.81215 8.9541 1.56485C8.99333 1.47301 9.03016 1.38069 9.07177 1.29029C9.18466 1.04777 9.31285 0.887527 9.63095 0.823908C10.249 0.700019 10.8105 0.391012 11.3601 0.0796144C11.3893 0.0633509 11.4104 0.0370413 11.4764 0.0800917C11.286 0.429757 11.0133 0.704324 10.6991 0.943493C10.5584 1.05112 10.4126 1.153 10.2691 1.25728Z" fill="white"/>
<path d="M10.2069 5.3127C10.1743 5.31546 10.1414 5.3221 10.1082 5.33262C10.075 5.34258 10.0495 5.35863 10.0318 5.38076C10.0202 5.39404 10.0083 5.41369 9.99609 5.4397C9.98447 5.46571 9.97036 5.49642 9.95376 5.53184C9.93716 5.56725 9.92028 5.60212 9.90313 5.63643C9.88597 5.67074 9.86383 5.70505 9.83672 5.73936C9.85885 5.76592 9.88597 5.79497 9.91807 5.82651C9.95016 5.8575 9.97756 5.87992 10.0002 5.89375C10.0224 5.90648 10.0536 5.91727 10.094 5.92612C10.135 5.93498 10.1685 5.93996 10.1945 5.94106V6H9.85249L9.72881 5.85889C9.71055 5.87881 9.68952 5.89956 9.66572 5.92114C9.64248 5.94217 9.61785 5.96043 9.59185 5.97593C9.56307 5.99253 9.53402 6.00553 9.50469 6.01494C9.47591 6.02435 9.44188 6.02905 9.40259 6.02905C9.36164 6.02905 9.32096 6.02297 9.28057 6.01079C9.24017 5.99917 9.20337 5.98035 9.17017 5.95435C9.13807 5.92889 9.11206 5.89624 9.09214 5.8564C9.07222 5.81655 9.06226 5.76896 9.06226 5.71362C9.06226 5.645 9.08024 5.58302 9.11621 5.52769C9.15273 5.47179 9.22052 5.41258 9.31958 5.35005C9.27476 5.29084 9.23989 5.23965 9.21499 5.19648C9.19009 5.15332 9.17764 5.1049 9.17764 5.05122C9.17764 5.01304 9.18511 4.97817 9.20005 4.94663C9.21554 4.91453 9.23713 4.88659 9.26479 4.86279C9.29025 4.84121 9.32124 4.82433 9.35776 4.81216C9.39429 4.79998 9.43136 4.7939 9.46899 4.7939C9.51326 4.7939 9.552 4.80109 9.58521 4.81548C9.61896 4.82931 9.64635 4.84757 9.66738 4.87026C9.68675 4.89129 9.70142 4.91564 9.71138 4.94331C9.72189 4.97098 9.72715 4.99865 9.72715 5.02632C9.72715 5.09272 9.7064 5.15 9.66489 5.19814C9.62394 5.24574 9.56722 5.28862 9.49473 5.32681C9.54674 5.39709 9.59766 5.46128 9.64746 5.51938C9.69727 5.57694 9.74513 5.63366 9.79106 5.68955C9.82814 5.63034 9.85692 5.57472 9.87739 5.52271C9.89787 5.47013 9.90811 5.42393 9.90811 5.38408C9.90811 5.36637 9.8951 5.35254 9.86909 5.34258C9.84364 5.33206 9.80822 5.3221 9.76284 5.3127V5.25376H10.2069V5.3127ZM9.62007 5.04292C9.62007 4.98647 9.60762 4.94331 9.58271 4.91343C9.55781 4.88299 9.5224 4.86777 9.47646 4.86777C9.45046 4.86777 9.42887 4.87303 9.41172 4.88354C9.39456 4.89406 9.3799 4.90734 9.36772 4.92339C9.35666 4.93888 9.34863 4.95548 9.34365 4.97319C9.33867 4.9909 9.33618 5.00667 9.33618 5.02051C9.33618 5.05869 9.34614 5.09743 9.36606 5.13672C9.38599 5.17546 9.41698 5.22249 9.45903 5.27783C9.51603 5.24574 9.55698 5.21115 9.58188 5.17407C9.60734 5.13644 9.62007 5.09272 9.62007 5.04292ZM9.68481 5.81074C9.63335 5.74544 9.57524 5.67406 9.5105 5.59658C9.44631 5.51855 9.39484 5.4527 9.3561 5.39902C9.31128 5.43001 9.27946 5.46654 9.26064 5.50859C9.24238 5.5501 9.23325 5.59769 9.23325 5.65137C9.23325 5.72663 9.25456 5.78916 9.29717 5.83896C9.34033 5.88822 9.39788 5.91284 9.46982 5.91284C9.51022 5.91284 9.54979 5.90426 9.58853 5.88711C9.62782 5.8694 9.65991 5.84395 9.68481 5.81074ZM11.7982 6H11.3076V5.94106C11.3508 5.9383 11.3865 5.93276 11.4147 5.92446C11.4435 5.91616 11.4579 5.90592 11.4579 5.89375C11.4579 5.88877 11.4573 5.88268 11.4562 5.87549C11.4551 5.86829 11.4534 5.86193 11.4512 5.8564L11.3533 5.59243H10.9407C10.9252 5.63117 10.9125 5.66493 10.9025 5.6937C10.8931 5.72248 10.8846 5.74904 10.8768 5.77339C10.8696 5.79718 10.8646 5.81655 10.8619 5.83149C10.8591 5.84644 10.8577 5.85861 10.8577 5.86802C10.8577 5.89015 10.8751 5.90731 10.91 5.91948C10.9449 5.93166 10.9842 5.93885 11.0279 5.94106V6H10.5846V5.94106C10.599 5.93996 10.617 5.93691 10.6386 5.93193C10.6602 5.9264 10.6779 5.91921 10.6917 5.91035C10.7138 5.89541 10.731 5.87992 10.7432 5.86387C10.7553 5.84727 10.7672 5.82458 10.7789 5.7958C10.8381 5.64805 10.9034 5.48203 10.9748 5.29775C11.0461 5.11348 11.1098 4.9494 11.1657 4.80552H11.2321L11.6247 5.82153C11.633 5.84312 11.6424 5.86055 11.6529 5.87383C11.6634 5.88711 11.6781 5.90011 11.6969 5.91284C11.7097 5.92059 11.7263 5.92723 11.7467 5.93276C11.7672 5.93774 11.7844 5.94051 11.7982 5.94106V6ZM11.3234 5.51855L11.1449 5.06201L10.9698 5.51855H11.3234ZM12.3593 5.59907C12.382 5.61899 12.3994 5.64196 12.4116 5.66797C12.4238 5.69398 12.4299 5.7258 12.4299 5.76343C12.4299 5.83924 12.4014 5.90122 12.3444 5.94937C12.2879 5.99751 12.2146 6.02158 12.1244 6.02158C12.0768 6.02158 12.0328 6.013 11.9924 5.99585C11.9526 5.97869 11.9241 5.96292 11.9069 5.94854L11.8903 6.00249H11.8281L11.8198 5.71777H11.8771C11.8815 5.73936 11.8909 5.76453 11.9053 5.79331C11.9197 5.82209 11.9371 5.8481 11.9576 5.87134C11.9792 5.89569 12.0049 5.91616 12.0348 5.93276C12.0652 5.94937 12.0992 5.95767 12.1369 5.95767C12.19 5.95767 12.2309 5.94577 12.2597 5.92197C12.2885 5.89762 12.3029 5.86304 12.3029 5.81821C12.3029 5.79497 12.2982 5.77505 12.2888 5.75845C12.2799 5.74129 12.2666 5.72635 12.2489 5.71362C12.2307 5.7009 12.2083 5.68955 12.1817 5.67959C12.1551 5.66908 12.1255 5.65884 12.0929 5.64888C12.0669 5.64113 12.0378 5.63062 12.0057 5.61733C11.9742 5.6035 11.9471 5.58745 11.9244 5.56919C11.9 5.54982 11.8801 5.52603 11.8646 5.4978C11.8491 5.46958 11.8414 5.43638 11.8414 5.39819C11.8414 5.33123 11.8663 5.27451 11.9161 5.22803C11.9659 5.18154 12.0326 5.1583 12.1161 5.1583C12.1482 5.1583 12.1809 5.16245 12.2141 5.17075C12.2478 5.17905 12.2752 5.18901 12.2962 5.20063L12.3153 5.15747H12.3751L12.3875 5.42061H12.3303C12.3187 5.36195 12.2935 5.31436 12.2547 5.27783C12.2166 5.24076 12.1698 5.22222 12.1145 5.22222C12.0691 5.22222 12.0334 5.23356 12.0074 5.25625C11.9814 5.27894 11.9684 5.30633 11.9684 5.33843C11.9684 5.36333 11.9725 5.38408 11.9808 5.40068C11.9897 5.41729 12.0027 5.4314 12.0198 5.44302C12.0364 5.45409 12.0572 5.4646 12.0821 5.47456C12.1075 5.48397 12.1388 5.49476 12.1759 5.50693C12.2124 5.51855 12.2467 5.53211 12.2788 5.54761C12.3115 5.5631 12.3383 5.58026 12.3593 5.59907ZM13.3521 5.58247C13.3521 5.64002 13.343 5.69674 13.3247 5.75264C13.3064 5.80798 13.2804 5.85501 13.2467 5.89375C13.2085 5.93802 13.1642 5.97095 13.1139 5.99253C13.0635 6.01411 13.0071 6.0249 12.9445 6.0249C12.8925 6.0249 12.843 6.01522 12.7959 5.99585C12.7489 5.97593 12.7071 5.94715 12.6706 5.90952C12.6346 5.87244 12.6059 5.82734 12.5843 5.77422C12.5632 5.72054 12.5527 5.6605 12.5527 5.59409C12.5527 5.46626 12.5898 5.36167 12.664 5.28032C12.7387 5.19897 12.8363 5.1583 12.957 5.1583C13.0715 5.1583 13.1659 5.19704 13.24 5.27451C13.3147 5.35143 13.3521 5.45409 13.3521 5.58247ZM13.1803 5.58413C13.1803 5.54263 13.1761 5.49891 13.1678 5.45298C13.1595 5.40649 13.1471 5.3672 13.1305 5.33511C13.1128 5.3008 13.0895 5.2734 13.0607 5.25293C13.032 5.2319 12.9968 5.22139 12.9553 5.22139C12.9127 5.22139 12.8762 5.2319 12.8458 5.25293C12.8159 5.27396 12.7915 5.30273 12.7727 5.33926C12.755 5.37301 12.7425 5.41147 12.7354 5.45464C12.7282 5.4978 12.7246 5.53958 12.7246 5.57998C12.7246 5.63311 12.7287 5.68236 12.737 5.72773C12.7459 5.77256 12.7597 5.81268 12.7785 5.8481C12.7973 5.88351 12.8208 5.91146 12.8491 5.93193C12.8778 5.95186 12.9133 5.96182 12.9553 5.96182C13.0245 5.96182 13.0793 5.92834 13.1197 5.86138C13.1601 5.79442 13.1803 5.702 13.1803 5.58413ZM13.8493 6.02158C13.7309 6.02158 13.6382 5.98229 13.5712 5.90371C13.5043 5.82513 13.4708 5.71971 13.4708 5.58745C13.4708 5.5299 13.4797 5.47622 13.4974 5.42642C13.5156 5.37606 13.5419 5.3304 13.5762 5.28945C13.6089 5.25016 13.6498 5.21862 13.6991 5.19482C13.7483 5.17048 13.802 5.1583 13.8601 5.1583C13.9403 5.1583 14.0056 5.17767 14.056 5.21641C14.1064 5.25459 14.1315 5.30688 14.1315 5.37329C14.1315 5.40096 14.1249 5.42559 14.1116 5.44717C14.0983 5.4682 14.0765 5.47871 14.046 5.47871C14.0134 5.47871 13.9879 5.47041 13.9697 5.45381C13.952 5.43721 13.9431 5.41867 13.9431 5.39819C13.9431 5.37329 13.9464 5.34784 13.9531 5.32183C13.9597 5.29526 13.9636 5.2759 13.9647 5.26372C13.9547 5.24657 13.9398 5.23522 13.9199 5.22969C13.9005 5.2236 13.8795 5.22056 13.8568 5.22056C13.8302 5.22056 13.8048 5.22637 13.7804 5.23799C13.7566 5.24906 13.7334 5.26981 13.7107 5.30024C13.6902 5.32791 13.6736 5.36527 13.6609 5.4123C13.6482 5.45934 13.6418 5.51551 13.6418 5.58081C13.6418 5.68374 13.6645 5.76785 13.7099 5.83315C13.7558 5.8979 13.8158 5.93027 13.89 5.93027C13.9437 5.93027 13.9885 5.91727 14.0245 5.89126C14.061 5.86525 14.0947 5.82624 14.1257 5.77422L14.1789 5.80908C14.1423 5.87438 14.0942 5.92612 14.0344 5.96431C13.9747 6.00249 13.913 6.02158 13.8493 6.02158ZM14.6404 6H14.2444V5.94521C14.2572 5.94411 14.2702 5.943 14.2834 5.94189C14.2973 5.94079 14.3092 5.93857 14.3191 5.93525C14.3346 5.93027 14.346 5.9217 14.3532 5.90952C14.3609 5.89679 14.3648 5.88047 14.3648 5.86055V5.35503C14.3648 5.33732 14.3606 5.32127 14.3523 5.30688C14.3446 5.29194 14.3335 5.27949 14.3191 5.26953C14.3086 5.26289 14.2934 5.25736 14.2735 5.25293C14.2536 5.24795 14.2353 5.24491 14.2187 5.2438V5.18984L14.5076 5.17158L14.5192 5.1832V5.85059C14.5192 5.86995 14.5228 5.886 14.53 5.89873C14.5377 5.91146 14.5496 5.92087 14.5657 5.92695C14.5778 5.93193 14.5897 5.93608 14.6014 5.9394C14.613 5.94217 14.626 5.94411 14.6404 5.94521V6ZM14.5358 4.84868C14.5358 4.88022 14.5253 4.90789 14.5042 4.93169C14.4838 4.95493 14.4583 4.96655 14.4279 4.96655C14.3997 4.96655 14.375 4.95548 14.354 4.93335C14.3335 4.91066 14.3233 4.88493 14.3233 4.85615C14.3233 4.82572 14.3335 4.79915 14.354 4.77646C14.375 4.75378 14.3997 4.74243 14.4279 4.74243C14.4594 4.74243 14.4852 4.75322 14.5051 4.7748C14.5256 4.79583 14.5358 4.82046 14.5358 4.84868ZM15.5161 5.98506C15.4901 5.99447 15.4671 6.00194 15.4472 6.00747C15.4278 6.01356 15.4057 6.0166 15.3808 6.0166C15.3376 6.0166 15.3031 6.00664 15.2771 5.98672C15.2516 5.96624 15.2353 5.93664 15.2281 5.8979H15.2231C15.1871 5.93774 15.1484 5.96818 15.1069 5.98921C15.0659 6.01024 15.0164 6.02075 14.9583 6.02075C14.8969 6.02075 14.8462 6.00194 14.8064 5.96431C14.7671 5.92668 14.7475 5.87743 14.7475 5.81655C14.7475 5.78501 14.7519 5.75679 14.7607 5.73188C14.7696 5.70698 14.7829 5.68457 14.8006 5.66465C14.8144 5.64805 14.8327 5.63338 14.8554 5.62065C14.8781 5.60737 14.8994 5.59686 14.9193 5.58911C14.9442 5.5797 14.9945 5.56227 15.0704 5.53682C15.1467 5.51136 15.1982 5.49144 15.2248 5.47705V5.39487C15.2248 5.38768 15.2231 5.37384 15.2198 5.35337C15.217 5.33289 15.2106 5.31353 15.2007 5.29526C15.1896 5.27479 15.1738 5.25708 15.1534 5.24214C15.1334 5.22664 15.1049 5.2189 15.0679 5.2189C15.0424 5.2189 15.0186 5.22332 14.9965 5.23218C14.9749 5.24048 14.9597 5.24933 14.9508 5.25874C14.9508 5.26981 14.9533 5.28613 14.9583 5.30771C14.9638 5.3293 14.9666 5.34922 14.9666 5.36748C14.9666 5.38685 14.9577 5.40456 14.94 5.42061C14.9229 5.43665 14.8988 5.44468 14.8678 5.44468C14.8402 5.44468 14.8197 5.43499 14.8064 5.41562C14.7937 5.3957 14.7873 5.37357 14.7873 5.34922C14.7873 5.32376 14.7962 5.29941 14.8139 5.27617C14.8321 5.25293 14.8556 5.23218 14.8844 5.21392C14.9093 5.19842 14.9395 5.18542 14.9749 5.1749C15.0103 5.16383 15.0449 5.1583 15.0787 5.1583C15.1251 5.1583 15.1655 5.16162 15.1999 5.16826C15.2347 5.17435 15.2663 5.18791 15.2945 5.20894C15.3227 5.22941 15.344 5.25736 15.3584 5.29277C15.3733 5.32764 15.3808 5.37274 15.3808 5.42808C15.3808 5.50721 15.38 5.57749 15.3783 5.63892C15.3767 5.69979 15.3758 5.76647 15.3758 5.83896C15.3758 5.86055 15.3794 5.8777 15.3866 5.89043C15.3944 5.90316 15.406 5.91395 15.4215 5.9228C15.4298 5.92778 15.4428 5.93055 15.4605 5.9311C15.4788 5.93166 15.4973 5.93193 15.5161 5.93193V5.98506ZM15.2264 5.54678C15.1794 5.56061 15.1382 5.57417 15.1027 5.58745C15.0673 5.60073 15.0344 5.61733 15.004 5.63726C14.9763 5.65607 14.9544 5.67848 14.9384 5.70449C14.9223 5.72995 14.9143 5.76038 14.9143 5.7958C14.9143 5.84173 14.9262 5.87549 14.95 5.89707C14.9743 5.91865 15.0051 5.92944 15.0421 5.92944C15.0814 5.92944 15.116 5.92004 15.1459 5.90122C15.1758 5.88185 15.201 5.85916 15.2214 5.83315L15.2264 5.54678ZM16.4939 5.98506L16.2084 6.00332L16.1959 5.9917V5.91533L16.1893 5.91367C16.1605 5.94577 16.1248 5.97205 16.0822 5.99253C16.0402 6.013 15.9967 6.02324 15.9519 6.02324C15.9054 6.02324 15.8603 6.013 15.8166 5.99253C15.7734 5.9715 15.7358 5.94217 15.7037 5.90454C15.6711 5.86636 15.6451 5.82043 15.6257 5.76675C15.6069 5.71307 15.5975 5.65386 15.5975 5.58911C15.5975 5.5299 15.6077 5.47373 15.6282 5.42061C15.6486 5.36748 15.6769 5.321 15.7128 5.28115C15.7466 5.24408 15.7878 5.21447 15.8365 5.19233C15.8858 5.1702 15.9359 5.15913 15.9868 5.15913C16.025 5.15913 16.0623 5.16411 16.0988 5.17407C16.1359 5.18348 16.1677 5.19565 16.1943 5.2106V4.92588C16.1943 4.90264 16.1904 4.88161 16.1827 4.86279C16.1749 4.84342 16.1641 4.82876 16.1503 4.8188C16.1348 4.80828 16.1138 4.80081 16.0872 4.79639C16.0612 4.79141 16.033 4.78781 16.0025 4.7856V4.73413L16.3371 4.71504L16.3495 4.72749V5.83149C16.3495 5.85086 16.3531 5.86746 16.3603 5.8813C16.3681 5.89458 16.3791 5.90592 16.3935 5.91533C16.404 5.92197 16.4192 5.92612 16.4392 5.92778C16.4591 5.92944 16.4773 5.93055 16.4939 5.9311V5.98506ZM16.1943 5.84146V5.3625C16.1899 5.34811 16.1827 5.33262 16.1727 5.31602C16.1627 5.29941 16.1503 5.2842 16.1354 5.27036C16.1193 5.25653 16.1005 5.24518 16.0789 5.23633C16.0573 5.22692 16.0321 5.22222 16.0034 5.22222C15.9702 5.22222 15.9395 5.23079 15.9112 5.24795C15.8836 5.2651 15.8589 5.28973 15.8374 5.32183C15.8169 5.35282 15.8006 5.39238 15.7884 5.44053C15.7768 5.48812 15.7709 5.54097 15.7709 5.59907C15.7709 5.64556 15.7754 5.68789 15.7842 5.72607C15.7931 5.7637 15.808 5.79884 15.8291 5.83149C15.8484 5.86248 15.873 5.88739 15.9029 5.9062C15.9334 5.92502 15.9693 5.93442 16.0108 5.93442C16.0551 5.93442 16.0916 5.92474 16.1204 5.90537C16.1497 5.886 16.1744 5.8647 16.1943 5.84146ZM17.3713 5.58247C17.3713 5.64002 17.3622 5.69674 17.3439 5.75264C17.3257 5.80798 17.2997 5.85501 17.2659 5.89375C17.2277 5.93802 17.1835 5.97095 17.1331 5.99253C17.0827 6.01411 17.0263 6.0249 16.9638 6.0249C16.9118 6.0249 16.8622 6.01522 16.8152 5.99585C16.7681 5.97593 16.7264 5.94715 16.6898 5.90952C16.6539 5.87244 16.6251 5.82734 16.6035 5.77422C16.5825 5.72054 16.572 5.6605 16.572 5.59409C16.572 5.46626 16.609 5.36167 16.6832 5.28032C16.7579 5.19897 16.8556 5.1583 16.9762 5.1583C17.0908 5.1583 17.1851 5.19704 17.2593 5.27451C17.334 5.35143 17.3713 5.45409 17.3713 5.58247ZM17.1995 5.58413C17.1995 5.54263 17.1954 5.49891 17.1871 5.45298C17.1788 5.40649 17.1663 5.3672 17.1497 5.33511C17.132 5.3008 17.1088 5.2734 17.08 5.25293C17.0512 5.2319 17.0161 5.22139 16.9746 5.22139C16.932 5.22139 16.8954 5.2319 16.865 5.25293C16.8351 5.27396 16.8108 5.30273 16.7919 5.33926C16.7742 5.37301 16.7618 5.41147 16.7546 5.45464C16.7474 5.4978 16.7438 5.53958 16.7438 5.57998C16.7438 5.63311 16.7479 5.68236 16.7563 5.72773C16.7651 5.77256 16.7789 5.81268 16.7978 5.8481C16.8166 5.88351 16.8401 5.91146 16.8683 5.93193C16.8971 5.95186 16.9325 5.96182 16.9746 5.96182C17.0437 5.96182 17.0985 5.92834 17.1389 5.86138C17.1793 5.79442 17.1995 5.702 17.1995 5.58413ZM18.0304 5.59907C18.0531 5.61899 18.0705 5.64196 18.0827 5.66797C18.0949 5.69398 18.101 5.7258 18.101 5.76343C18.101 5.83924 18.0725 5.90122 18.0155 5.94937C17.959 5.99751 17.8857 6.02158 17.7955 6.02158C17.7479 6.02158 17.7039 6.013 17.6635 5.99585C17.6237 5.97869 17.5952 5.96292 17.578 5.94854L17.5614 6.00249H17.4992L17.4909 5.71777H17.5481C17.5526 5.73936 17.562 5.76453 17.5764 5.79331C17.5908 5.82209 17.6082 5.8481 17.6287 5.87134C17.6502 5.89569 17.676 5.91616 17.7059 5.93276C17.7363 5.94937 17.7703 5.95767 17.808 5.95767C17.8611 5.95767 17.902 5.94577 17.9308 5.92197C17.9596 5.89762 17.974 5.86304 17.974 5.81821C17.974 5.79497 17.9693 5.77505 17.9599 5.75845C17.951 5.74129 17.9377 5.72635 17.92 5.71362C17.9018 5.7009 17.8793 5.68955 17.8528 5.67959C17.8262 5.66908 17.7966 5.65884 17.764 5.64888C17.738 5.64113 17.7089 5.63062 17.6768 5.61733C17.6453 5.6035 17.6181 5.58745 17.5955 5.56919C17.5711 5.54982 17.5512 5.52603 17.5357 5.4978C17.5202 5.46958 17.5125 5.43638 17.5125 5.39819C17.5125 5.33123 17.5374 5.27451 17.5872 5.22803C17.637 5.18154 17.7036 5.1583 17.7872 5.1583C17.8193 5.1583 17.852 5.16245 17.8852 5.17075C17.9189 5.17905 17.9463 5.18901 17.9673 5.20063L17.9864 5.15747H18.0462L18.0586 5.42061H18.0014C17.9897 5.36195 17.9646 5.31436 17.9258 5.27783C17.8876 5.24076 17.8409 5.22222 17.7855 5.22222C17.7402 5.22222 17.7045 5.23356 17.6785 5.25625C17.6525 5.27894 17.6395 5.30633 17.6395 5.33843C17.6395 5.36333 17.6436 5.38408 17.6519 5.40068C17.6608 5.41729 17.6738 5.4314 17.6909 5.44302C17.7075 5.45409 17.7283 5.4646 17.7532 5.47456C17.7786 5.48397 17.8099 5.49476 17.847 5.50693C17.8835 5.51855 17.9178 5.53211 17.9499 5.54761C17.9826 5.5631 18.0094 5.58026 18.0304 5.59907Z" fill="white"/>
</svg>
