<svg width="200" height="201" viewBox="0 0 200 201" fill="none" xmlns="http://www.w3.org/2000/svg">
<path d="M59.3916 30.4416C33.124 47.7715 5.62139 59.4918 0.507016 61.6142L130.206 152.453C130.272 152.498 130.325 152.56 130.362 152.631C130.398 152.703 130.416 152.782 130.415 152.862V152.868C130.415 152.95 130.394 153.03 130.355 153.101C130.316 153.173 130.259 153.233 130.191 153.278L124.402 157.089C124.319 157.143 124.222 157.171 124.124 157.17C124.025 157.169 123.929 157.139 123.847 157.083L76.4827 124.481C58.41 112.272 38.4742 114.863 24.9381 119.19C11.9443 123.337 2.37 129.69 0 131.347C1.13489 132.142 97.9749 199.82 98.6263 200.28C100.716 198.317 114.904 185.361 144.724 166.964C176.167 147.595 194.706 140.824 198.995 139.391L69.0573 48.3994C68.9917 48.3537 68.9382 48.2929 68.9012 48.222C68.8643 48.1512 68.845 48.0725 68.8451 47.9926V47.9867C68.846 47.9056 68.8666 47.8259 68.9051 47.7546C68.9436 47.6832 68.9989 47.6223 69.0661 47.5769L74.5962 43.9099C74.6771 43.8565 74.7719 43.8281 74.8688 43.8281C74.9658 43.8281 75.0606 43.8565 75.1415 43.9099C75.3154 44.0219 92.7367 55.4593 124.054 77.5086C153.416 98.1665 194.37 73.3935 200 69.7972C198.809 68.9748 100.433 0.436269 99.8113 0C97.35 2.09881 79.2035 17.4095 59.3916 30.4416V30.4416Z" fill="#D52B1E"/>
</svg>
